<mxfile host="app.diagrams.net" modified="2022-05-07T11:40:15.864Z" agent="5.0 (Windows NT 10.0; Win64; x64) AppleWebKit/537.36 (KHTML, like Gecko) Chrome/99.0.4844.84 Safari/537.36 OPR/85.0.4341.72" etag="MD2lsbbRiLUDpOg5oXTb" version="17.5.0" type="github">
  <diagram id="R2lEEEUBdFMjLlhIrx00" name="Page-1">
    <mxGraphModel dx="3946" dy="2183" grid="1" gridSize="3.937" guides="1" tooltips="1" connect="1" arrows="1" fold="1" page="1" pageScale="1" pageWidth="2339" pageHeight="3300" math="0" shadow="0" extFonts="Permanent Marker^https://fonts.googleapis.com/css?family=Permanent+Marker">
      <root>
        <mxCell id="0" />
        <mxCell id="1" parent="0" />
        <mxCell id="bOlvTl43doBLw3R69mOg-1" value="" style="rounded=0;whiteSpace=wrap;html=1;fillColor=none;" parent="1" vertex="1">
          <mxGeometry x="29.98999999999999" y="20.03" width="2290" height="3250" as="geometry" />
        </mxCell>
        <mxCell id="bOlvTl43doBLw3R69mOg-2" value="" style="rounded=0;whiteSpace=wrap;html=1;fillColor=none;" parent="1" vertex="1">
          <mxGeometry x="1591.1100000000001" y="3092.86" width="728.35" height="177.165" as="geometry" />
        </mxCell>
        <mxCell id="UN5E2BRM_m0n_mUQd9ct-3" value="" style="rounded=0;whiteSpace=wrap;html=1;fillColor=none;" parent="1" vertex="1">
          <mxGeometry x="1592.0099999999998" y="3131.16" width="27.558999999999997" height="19.685" as="geometry" />
        </mxCell>
        <mxCell id="UN5E2BRM_m0n_mUQd9ct-4" value="" style="rounded=0;whiteSpace=wrap;html=1;fillColor=none;" parent="1" vertex="1">
          <mxGeometry x="1592.0000000000002" y="3151.6699999999996" width="27.558999999999997" height="19.685" as="geometry" />
        </mxCell>
        <mxCell id="UN5E2BRM_m0n_mUQd9ct-5" value="" style="rounded=0;whiteSpace=wrap;html=1;fillColor=none;" parent="1" vertex="1">
          <mxGeometry x="1592.01" y="3111.47" width="27.558999999999997" height="19.685" as="geometry" />
        </mxCell>
        <mxCell id="UN5E2BRM_m0n_mUQd9ct-9" value="" style="rounded=0;whiteSpace=wrap;html=1;fillColor=none;" parent="1" vertex="1">
          <mxGeometry x="1619.5699999999997" y="3131.16" width="39.37" height="19.685" as="geometry" />
        </mxCell>
        <mxCell id="UN5E2BRM_m0n_mUQd9ct-10" value="" style="rounded=0;whiteSpace=wrap;html=1;fillColor=none;" parent="1" vertex="1">
          <mxGeometry x="1619.5600000000002" y="3151.6699999999996" width="39.37" height="19.685" as="geometry" />
        </mxCell>
        <mxCell id="UN5E2BRM_m0n_mUQd9ct-11" value="" style="rounded=0;whiteSpace=wrap;html=1;fillColor=none;" parent="1" vertex="1">
          <mxGeometry x="1619.57" y="3111.47" width="39.37" height="19.685" as="geometry" />
        </mxCell>
        <mxCell id="UN5E2BRM_m0n_mUQd9ct-14" value="" style="rounded=0;whiteSpace=wrap;html=1;fillColor=none;" parent="1" vertex="1">
          <mxGeometry x="1658.9399999999998" y="3131.16" width="90.551" height="19.685" as="geometry" />
        </mxCell>
        <mxCell id="UN5E2BRM_m0n_mUQd9ct-15" value="" style="rounded=0;whiteSpace=wrap;html=1;fillColor=none;" parent="1" vertex="1">
          <mxGeometry x="1659.2800000000002" y="3130.9399999999996" width="90.551" height="19.685" as="geometry" />
        </mxCell>
        <mxCell id="UN5E2BRM_m0n_mUQd9ct-16" value="" style="rounded=0;whiteSpace=wrap;html=1;fillColor=none;" parent="1" vertex="1">
          <mxGeometry x="1658.94" y="3111.47" width="90.551" height="19.685" as="geometry" />
        </mxCell>
        <mxCell id="UN5E2BRM_m0n_mUQd9ct-19" value="" style="rounded=0;whiteSpace=wrap;html=1;fillColor=none;" parent="1" vertex="1">
          <mxGeometry x="1749.4899999999998" y="3131.16" width="59.055" height="19.685" as="geometry" />
        </mxCell>
        <mxCell id="UN5E2BRM_m0n_mUQd9ct-20" value="" style="rounded=0;whiteSpace=wrap;html=1;fillColor=none;" parent="1" vertex="1">
          <mxGeometry x="1749.14" y="3151.67" width="59.055" height="19.685" as="geometry" />
        </mxCell>
        <mxCell id="UN5E2BRM_m0n_mUQd9ct-21" value="" style="rounded=0;whiteSpace=wrap;html=1;fillColor=none;" parent="1" vertex="1">
          <mxGeometry x="1749.49" y="3111.47" width="59.055" height="19.685" as="geometry" />
        </mxCell>
        <mxCell id="UN5E2BRM_m0n_mUQd9ct-24" value="" style="rounded=0;whiteSpace=wrap;html=1;fillColor=none;" parent="1" vertex="1">
          <mxGeometry x="1808.2099999999998" y="3132" width="39.37" height="19.685" as="geometry" />
        </mxCell>
        <mxCell id="UN5E2BRM_m0n_mUQd9ct-25" value="" style="rounded=0;whiteSpace=wrap;html=1;fillColor=none;" parent="1" vertex="1">
          <mxGeometry x="1808.2" y="3151.67" width="39.37" height="19.685" as="geometry" />
        </mxCell>
        <mxCell id="UN5E2BRM_m0n_mUQd9ct-26" value="" style="rounded=0;whiteSpace=wrap;html=1;fillColor=none;" parent="1" vertex="1">
          <mxGeometry x="1808.19" y="3111.47" width="39.37" height="19.685" as="geometry" />
        </mxCell>
        <mxCell id="UN5E2BRM_m0n_mUQd9ct-27" value="" style="rounded=0;whiteSpace=wrap;html=1;fillColor=none;" parent="1" vertex="1">
          <mxGeometry x="1847.56" y="3092.86" width="472.43" height="59.055" as="geometry" />
        </mxCell>
        <mxCell id="UN5E2BRM_m0n_mUQd9ct-28" value="Изм." style="text;html=1;strokeColor=none;fillColor=none;align=center;verticalAlign=middle;whiteSpace=wrap;rounded=0;fontFamily=Times New Roman;fontSize=10;" parent="1" vertex="1">
          <mxGeometry x="1591.11" y="3151.66" width="27.558999999999997" height="19.685" as="geometry" />
        </mxCell>
        <mxCell id="UN5E2BRM_m0n_mUQd9ct-29" value="Лист" style="text;html=1;strokeColor=none;fillColor=none;align=center;verticalAlign=middle;whiteSpace=wrap;rounded=0;fontFamily=Times New Roman;fontSize=10;" parent="1" vertex="1">
          <mxGeometry x="1619.9099999999999" y="3150.85" width="39.37" height="19.685" as="geometry" />
        </mxCell>
        <mxCell id="UN5E2BRM_m0n_mUQd9ct-30" value="№ докум." style="text;html=1;strokeColor=none;fillColor=none;align=center;verticalAlign=middle;whiteSpace=wrap;rounded=0;fontFamily=Times New Roman;fontSize=10;" parent="1" vertex="1">
          <mxGeometry x="1659.2799999999997" y="3151.66" width="90.551" height="19.68" as="geometry" />
        </mxCell>
        <mxCell id="UN5E2BRM_m0n_mUQd9ct-31" value="Подп" style="text;html=1;strokeColor=none;fillColor=none;align=center;verticalAlign=middle;whiteSpace=wrap;rounded=0;fontFamily=Times New Roman;fontSize=10;" parent="1" vertex="1">
          <mxGeometry x="1748.5900000000001" y="3151.93" width="59.055" height="19.68" as="geometry" />
        </mxCell>
        <mxCell id="UN5E2BRM_m0n_mUQd9ct-32" value="Дата" style="text;html=1;strokeColor=none;fillColor=none;align=center;verticalAlign=middle;whiteSpace=wrap;rounded=0;fontFamily=Times New Roman;fontSize=10;" parent="1" vertex="1">
          <mxGeometry x="1808.1899999999998" y="3151.93" width="39.37" height="19.685" as="geometry" />
        </mxCell>
        <mxCell id="UN5E2BRM_m0n_mUQd9ct-34" value="" style="rounded=0;whiteSpace=wrap;html=1;fillColor=none;" parent="1" vertex="1">
          <mxGeometry x="1592" y="3171.6" width="66.929" height="19.68" as="geometry" />
        </mxCell>
        <mxCell id="UN5E2BRM_m0n_mUQd9ct-35" value="" style="rounded=0;whiteSpace=wrap;html=1;fillColor=none;" parent="1" vertex="1">
          <mxGeometry x="1592" y="3191.28" width="66.929" height="19.68" as="geometry" />
        </mxCell>
        <mxCell id="UN5E2BRM_m0n_mUQd9ct-36" value="" style="rounded=0;whiteSpace=wrap;html=1;fillColor=none;" parent="1" vertex="1">
          <mxGeometry x="1592" y="3210.96" width="66.929" height="19.68" as="geometry" />
        </mxCell>
        <mxCell id="UN5E2BRM_m0n_mUQd9ct-37" value="" style="rounded=0;whiteSpace=wrap;html=1;fillColor=none;" parent="1" vertex="1">
          <mxGeometry x="1592" y="3230.64" width="66.929" height="19.68" as="geometry" />
        </mxCell>
        <mxCell id="UN5E2BRM_m0n_mUQd9ct-38" value="" style="rounded=0;whiteSpace=wrap;html=1;fillColor=none;" parent="1" vertex="1">
          <mxGeometry x="1592" y="3250.32" width="66.929" height="19.68" as="geometry" />
        </mxCell>
        <mxCell id="UN5E2BRM_m0n_mUQd9ct-39" value="" style="rounded=0;whiteSpace=wrap;html=1;fillColor=none;" parent="1" vertex="1">
          <mxGeometry x="1658.6" y="3151.6699999999996" width="90.551" height="19.68" as="geometry" />
        </mxCell>
        <mxCell id="UN5E2BRM_m0n_mUQd9ct-42" value="" style="rounded=0;whiteSpace=wrap;html=1;fillColor=none;" parent="1" vertex="1">
          <mxGeometry x="1658.59" y="3210.96" width="90.551" height="19.68" as="geometry" />
        </mxCell>
        <mxCell id="UN5E2BRM_m0n_mUQd9ct-43" value="" style="rounded=0;whiteSpace=wrap;html=1;fillColor=none;" parent="1" vertex="1">
          <mxGeometry x="1658.59" y="3230.64" width="90.551" height="19.68" as="geometry" />
        </mxCell>
        <mxCell id="UN5E2BRM_m0n_mUQd9ct-44" value="" style="rounded=0;whiteSpace=wrap;html=1;fillColor=none;" parent="1" vertex="1">
          <mxGeometry x="1658.59" y="3250.32" width="90.551" height="19.68" as="geometry" />
        </mxCell>
        <mxCell id="UN5E2BRM_m0n_mUQd9ct-45" value="" style="rounded=0;whiteSpace=wrap;html=1;fillColor=none;" parent="1" vertex="1">
          <mxGeometry x="1749.1499999999999" y="3171.61" width="59.055" height="19.68" as="geometry" />
        </mxCell>
        <mxCell id="UN5E2BRM_m0n_mUQd9ct-46" value="" style="rounded=0;whiteSpace=wrap;html=1;fillColor=none;" parent="1" vertex="1">
          <mxGeometry x="1749.1399999999999" y="3191.2799999999997" width="59.055" height="19.68" as="geometry" />
        </mxCell>
        <mxCell id="UN5E2BRM_m0n_mUQd9ct-48" value="" style="rounded=0;whiteSpace=wrap;html=1;fillColor=none;" parent="1" vertex="1">
          <mxGeometry x="1749.1399999999999" y="3210.96" width="59.055" height="19.68" as="geometry" />
        </mxCell>
        <mxCell id="UN5E2BRM_m0n_mUQd9ct-49" value="" style="rounded=0;whiteSpace=wrap;html=1;fillColor=none;" parent="1" vertex="1">
          <mxGeometry x="1749.1399999999999" y="3230.64" width="59.055" height="19.68" as="geometry" />
        </mxCell>
        <mxCell id="UN5E2BRM_m0n_mUQd9ct-50" value="" style="rounded=0;whiteSpace=wrap;html=1;fillColor=none;" parent="1" vertex="1">
          <mxGeometry x="1749.1399999999999" y="3250.32" width="59.055" height="19.68" as="geometry" />
        </mxCell>
        <mxCell id="UN5E2BRM_m0n_mUQd9ct-51" value="" style="rounded=0;whiteSpace=wrap;html=1;fillColor=none;" parent="1" vertex="1">
          <mxGeometry x="1808.1899999999998" y="3171.35" width="39.37" height="19.68" as="geometry" />
        </mxCell>
        <mxCell id="UN5E2BRM_m0n_mUQd9ct-52" value="" style="rounded=0;whiteSpace=wrap;html=1;fillColor=none;" parent="1" vertex="1">
          <mxGeometry x="1808.2" y="3191.2799999999997" width="39.37" height="19.68" as="geometry" />
        </mxCell>
        <mxCell id="UN5E2BRM_m0n_mUQd9ct-54" value="" style="rounded=0;whiteSpace=wrap;html=1;fillColor=none;" parent="1" vertex="1">
          <mxGeometry x="1808.2" y="3210.96" width="39.37" height="19.68" as="geometry" />
        </mxCell>
        <mxCell id="UN5E2BRM_m0n_mUQd9ct-55" value="" style="rounded=0;whiteSpace=wrap;html=1;fillColor=none;" parent="1" vertex="1">
          <mxGeometry x="1808.2" y="3230.64" width="39.37" height="19.68" as="geometry" />
        </mxCell>
        <mxCell id="UN5E2BRM_m0n_mUQd9ct-56" value="" style="rounded=0;whiteSpace=wrap;html=1;fillColor=none;" parent="1" vertex="1">
          <mxGeometry x="1808.2" y="3250.32" width="39.37" height="19.68" as="geometry" />
        </mxCell>
        <mxCell id="UN5E2BRM_m0n_mUQd9ct-58" value="" style="rounded=0;whiteSpace=wrap;html=1;fontFamily=Times New Roman;fontSize=10;fillColor=none;" parent="1" vertex="1">
          <mxGeometry x="2248.59" y="3151.68" width="70.866" height="19.685" as="geometry" />
        </mxCell>
        <mxCell id="UN5E2BRM_m0n_mUQd9ct-59" value="" style="rounded=0;whiteSpace=wrap;html=1;fontFamily=Times New Roman;fontSize=10;fillColor=none;" parent="1" vertex="1">
          <mxGeometry x="2249.1400000000003" y="3170.53" width="70.866" height="39.37" as="geometry" />
        </mxCell>
        <mxCell id="UN5E2BRM_m0n_mUQd9ct-65" value="" style="rounded=0;whiteSpace=wrap;html=1;fontFamily=Times New Roman;fontSize=10;fillColor=none;" parent="1" vertex="1">
          <mxGeometry x="2182.23" y="3151.68" width="66.929" height="19.685" as="geometry" />
        </mxCell>
        <mxCell id="UN5E2BRM_m0n_mUQd9ct-66" value="" style="rounded=0;whiteSpace=wrap;html=1;fontFamily=Times New Roman;fontSize=10;fillColor=none;" parent="1" vertex="1">
          <mxGeometry x="2182.21" y="3170.53" width="66.929" height="39.37" as="geometry" />
        </mxCell>
        <mxCell id="UN5E2BRM_m0n_mUQd9ct-68" value="" style="rounded=0;whiteSpace=wrap;html=1;fontFamily=Times New Roman;fontSize=10;fillColor=none;" parent="1" vertex="1">
          <mxGeometry x="2123.1800000000003" y="3151.92" width="59.055" height="19.685" as="geometry" />
        </mxCell>
        <mxCell id="UN5E2BRM_m0n_mUQd9ct-69" value="" style="rounded=0;whiteSpace=wrap;html=1;fontFamily=Times New Roman;fontSize=10;fillColor=none;" parent="1" vertex="1">
          <mxGeometry x="2123.1600000000003" y="3170.5299999999997" width="59.05" height="39.37" as="geometry" />
        </mxCell>
        <mxCell id="UN5E2BRM_m0n_mUQd9ct-71" value="" style="rounded=0;whiteSpace=wrap;html=1;fontFamily=Times New Roman;fontSize=10;fillColor=none;" parent="1" vertex="1">
          <mxGeometry x="2123.14" y="3210.9700000000003" width="196.85" height="59.055" as="geometry" />
        </mxCell>
        <mxCell id="UN5E2BRM_m0n_mUQd9ct-72" value="Разраб" style="text;html=1;strokeColor=none;fillColor=none;align=center;verticalAlign=middle;whiteSpace=wrap;rounded=0;fontFamily=Times New Roman;fontSize=10;" parent="1" vertex="1">
          <mxGeometry x="1592.35" y="3169.47" width="66.929" height="19.68" as="geometry" />
        </mxCell>
        <mxCell id="UN5E2BRM_m0n_mUQd9ct-73" value="Пров" style="text;html=1;strokeColor=none;fillColor=none;align=center;verticalAlign=middle;whiteSpace=wrap;rounded=0;fontFamily=Times New Roman;fontSize=10;" parent="1" vertex="1">
          <mxGeometry x="1591.1069999999997" y="3190.217" width="66.929" height="19.68" as="geometry" />
        </mxCell>
        <mxCell id="UN5E2BRM_m0n_mUQd9ct-75" value="Н. Контр." style="text;html=1;strokeColor=none;fillColor=none;align=center;verticalAlign=middle;whiteSpace=wrap;rounded=0;fontFamily=Times New Roman;fontSize=10;" parent="1" vertex="1">
          <mxGeometry x="1592.001" y="3230.641" width="66.929" height="19.68" as="geometry" />
        </mxCell>
        <mxCell id="UN5E2BRM_m0n_mUQd9ct-76" value="Утв." style="text;html=1;strokeColor=none;fillColor=none;align=center;verticalAlign=middle;whiteSpace=wrap;rounded=0;fontFamily=Times New Roman;fontSize=10;" parent="1" vertex="1">
          <mxGeometry x="1592.008" y="3250.348" width="66.929" height="19.68" as="geometry" />
        </mxCell>
        <mxCell id="UN5E2BRM_m0n_mUQd9ct-77" value="Лит." style="text;html=1;strokeColor=none;fillColor=none;align=center;verticalAlign=middle;whiteSpace=wrap;rounded=0;fontFamily=Times New Roman;fontSize=10;" parent="1" vertex="1">
          <mxGeometry x="2123.1800000000003" y="3151.93" width="59.055" height="19.68" as="geometry" />
        </mxCell>
        <mxCell id="UN5E2BRM_m0n_mUQd9ct-78" value="Лист" style="text;html=1;strokeColor=none;fillColor=none;align=center;verticalAlign=middle;whiteSpace=wrap;rounded=0;fontFamily=Times New Roman;fontSize=10;" parent="1" vertex="1">
          <mxGeometry x="2182.2320000000004" y="3151.682" width="66.929" height="19.68" as="geometry" />
        </mxCell>
        <mxCell id="UN5E2BRM_m0n_mUQd9ct-79" value="Листов" style="text;html=1;strokeColor=none;fillColor=none;align=center;verticalAlign=middle;whiteSpace=wrap;rounded=0;fontFamily=Times New Roman;fontSize=10;" parent="1" vertex="1">
          <mxGeometry x="2249.16" y="3151.68" width="69.75" height="19.68" as="geometry" />
        </mxCell>
        <mxCell id="UN5E2BRM_m0n_mUQd9ct-80" value="" style="rounded=0;whiteSpace=wrap;html=1;fillColor=none;" parent="1" vertex="1">
          <mxGeometry x="1658.0400000000002" y="3171.6099999999997" width="90.551" height="19.685" as="geometry" />
        </mxCell>
        <mxCell id="UN5E2BRM_m0n_mUQd9ct-81" value="Вершинин В. В." style="text;html=1;strokeColor=none;fillColor=none;align=center;verticalAlign=middle;whiteSpace=wrap;rounded=0;fontFamily=Times New Roman;fontSize=10;" parent="1" vertex="1">
          <mxGeometry x="1659.28" y="3191.03" width="88.74" height="19.68" as="geometry" />
        </mxCell>
        <mxCell id="UN5E2BRM_m0n_mUQd9ct-82" value="Фамилия И. О." style="text;html=1;strokeColor=none;fillColor=none;align=center;verticalAlign=middle;whiteSpace=wrap;rounded=0;fontFamily=Times New Roman;fontSize=10;" parent="1" vertex="1">
          <mxGeometry x="1658.597" y="3171.337" width="88.74" height="19.68" as="geometry" />
        </mxCell>
        <mxCell id="UN5E2BRM_m0n_mUQd9ct-83" value="&lt;p class=&quot;MsoNormal&quot; align=&quot;center&quot;&gt;&lt;i&gt;&lt;span style=&quot;font-size: 18px&quot;&gt;ВлГУ.09.03.02.11 Чертеж №1&lt;/span&gt;&lt;/i&gt;&lt;/p&gt;" style="text;html=1;strokeColor=none;fillColor=none;align=center;verticalAlign=middle;whiteSpace=wrap;rounded=0;fontFamily=Times New Roman;fontSize=10;" parent="1" vertex="1">
          <mxGeometry x="1847.56" y="3092.86" width="471.33" height="56.74" as="geometry" />
        </mxCell>
        <mxCell id="UN5E2BRM_m0n_mUQd9ct-84" value="&lt;font style=&quot;font-size: 17px&quot;&gt;ИСТ-120&lt;/font&gt;" style="text;html=1;strokeColor=none;fillColor=none;align=center;verticalAlign=middle;whiteSpace=wrap;rounded=0;fontFamily=Times New Roman;fontSize=10;" parent="1" vertex="1">
          <mxGeometry x="2123.18" y="3209.9" width="195.71" height="57.81" as="geometry" />
        </mxCell>
        <mxCell id="UN5E2BRM_m0n_mUQd9ct-85" value="&lt;font style=&quot;font-size: 17px&quot;&gt;Название темы&lt;br&gt;ER-диаграмма логического/физического уровня&lt;br&gt;&lt;/font&gt;" style="text;html=1;strokeColor=none;fillColor=none;align=center;verticalAlign=middle;whiteSpace=wrap;rounded=0;fontFamily=Times New Roman;fontSize=10;" parent="1" vertex="1">
          <mxGeometry x="1847.58" y="3151.93" width="274.46" height="116.09" as="geometry" />
        </mxCell>
        <mxCell id="nGZjkU_BB-jmXCYSWLeB-1" value="software" style="shape=table;startSize=55;container=1;collapsible=1;childLayout=tableLayout;fixedRows=1;rowLines=0;fontStyle=1;align=center;resizeLast=1;fillOpacity=100;strokeOpacity=100;enumerate=0;comic=0;flipH=10;fontSize=26;strokeWidth=4;" parent="1" vertex="1">
          <mxGeometry x="738.63" y="589.66" width="505.17" height="455" as="geometry" />
        </mxCell>
        <mxCell id="nGZjkU_BB-jmXCYSWLeB-2" value="" style="shape=tableRow;horizontal=0;startSize=0;swimlaneHead=0;swimlaneBody=0;fillColor=none;collapsible=0;dropTarget=0;points=[[0,0.5],[1,0.5]];portConstraint=eastwest;top=0;left=0;right=0;bottom=1;fillOpacity=100;strokeOpacity=100;enumerate=0;comic=0;strokeWidth=4;" parent="nGZjkU_BB-jmXCYSWLeB-1" vertex="1">
          <mxGeometry y="55" width="505.17" height="100" as="geometry" />
        </mxCell>
        <mxCell id="nGZjkU_BB-jmXCYSWLeB-3" value="PK" style="shape=partialRectangle;connectable=0;fillColor=none;top=0;left=0;bottom=0;right=0;fontStyle=1;overflow=hidden;fillOpacity=100;strokeOpacity=100;enumerate=0;comic=0;strokeWidth=4;fontSize=18;" parent="nGZjkU_BB-jmXCYSWLeB-2" vertex="1">
          <mxGeometry width="30" height="100" as="geometry">
            <mxRectangle width="30" height="100" as="alternateBounds" />
          </mxGeometry>
        </mxCell>
        <mxCell id="nGZjkU_BB-jmXCYSWLeB-4" value="id, uuid" style="shape=partialRectangle;connectable=0;fillColor=none;top=0;left=0;bottom=0;right=0;align=left;spacingLeft=6;fontStyle=5;overflow=hidden;fillOpacity=100;strokeOpacity=100;enumerate=0;comic=0;strokeWidth=4;fontSize=25;" parent="nGZjkU_BB-jmXCYSWLeB-2" vertex="1">
          <mxGeometry x="30" width="475.17" height="100" as="geometry">
            <mxRectangle width="475.17" height="100" as="alternateBounds" />
          </mxGeometry>
        </mxCell>
        <mxCell id="nGZjkU_BB-jmXCYSWLeB-5" value="" style="shape=tableRow;horizontal=0;startSize=0;swimlaneHead=0;swimlaneBody=0;fillColor=none;collapsible=0;dropTarget=0;points=[[0,0.5],[1,0.5]];portConstraint=eastwest;top=0;left=0;right=0;bottom=0;fillOpacity=100;strokeOpacity=100;enumerate=0;comic=0;strokeWidth=4;" parent="nGZjkU_BB-jmXCYSWLeB-1" vertex="1">
          <mxGeometry y="155" width="505.17" height="100" as="geometry" />
        </mxCell>
        <mxCell id="nGZjkU_BB-jmXCYSWLeB-6" value="FK" style="shape=partialRectangle;connectable=0;fillColor=none;top=0;left=0;bottom=0;right=0;editable=1;overflow=hidden;fillOpacity=100;strokeOpacity=100;enumerate=0;comic=0;strokeWidth=4;fontSize=18;" parent="nGZjkU_BB-jmXCYSWLeB-5" vertex="1">
          <mxGeometry width="30" height="100" as="geometry">
            <mxRectangle width="30" height="100" as="alternateBounds" />
          </mxGeometry>
        </mxCell>
        <mxCell id="nGZjkU_BB-jmXCYSWLeB-7" value="subject_id, uuid, not null" style="shape=partialRectangle;connectable=0;fillColor=none;top=0;left=0;bottom=0;right=0;align=left;spacingLeft=6;overflow=hidden;fillOpacity=100;strokeOpacity=100;enumerate=0;comic=0;strokeWidth=4;fontSize=25;" parent="nGZjkU_BB-jmXCYSWLeB-5" vertex="1">
          <mxGeometry x="30" width="475.17" height="100" as="geometry">
            <mxRectangle width="475.17" height="100" as="alternateBounds" />
          </mxGeometry>
        </mxCell>
        <mxCell id="nGZjkU_BB-jmXCYSWLeB-8" value="" style="shape=tableRow;horizontal=0;startSize=0;swimlaneHead=0;swimlaneBody=0;fillColor=none;collapsible=0;dropTarget=0;points=[[0,0.5],[1,0.5]];portConstraint=eastwest;top=0;left=0;right=0;bottom=0;fillOpacity=100;strokeOpacity=100;enumerate=0;comic=0;strokeWidth=4;" parent="nGZjkU_BB-jmXCYSWLeB-1" vertex="1">
          <mxGeometry y="255" width="505.17" height="100" as="geometry" />
        </mxCell>
        <mxCell id="nGZjkU_BB-jmXCYSWLeB-9" value="" style="shape=partialRectangle;connectable=0;fillColor=none;top=0;left=0;bottom=0;right=0;editable=1;overflow=hidden;fillOpacity=100;strokeOpacity=100;enumerate=0;comic=0;strokeWidth=4;" parent="nGZjkU_BB-jmXCYSWLeB-8" vertex="1">
          <mxGeometry width="30" height="100" as="geometry">
            <mxRectangle width="30" height="100" as="alternateBounds" />
          </mxGeometry>
        </mxCell>
        <mxCell id="nGZjkU_BB-jmXCYSWLeB-10" value="link, text, not null" style="shape=partialRectangle;connectable=0;fillColor=none;top=0;left=0;bottom=0;right=0;align=left;spacingLeft=6;overflow=hidden;fillOpacity=100;strokeOpacity=100;enumerate=0;comic=0;strokeWidth=4;fontSize=25;" parent="nGZjkU_BB-jmXCYSWLeB-8" vertex="1">
          <mxGeometry x="30" width="475.17" height="100" as="geometry">
            <mxRectangle width="475.17" height="100" as="alternateBounds" />
          </mxGeometry>
        </mxCell>
        <mxCell id="nGZjkU_BB-jmXCYSWLeB-11" value="" style="shape=tableRow;horizontal=0;startSize=0;swimlaneHead=0;swimlaneBody=0;fillColor=none;collapsible=0;dropTarget=0;points=[[0,0.5],[1,0.5]];portConstraint=eastwest;top=0;left=0;right=0;bottom=0;fillOpacity=100;strokeOpacity=100;enumerate=0;comic=0;strokeWidth=4;" parent="nGZjkU_BB-jmXCYSWLeB-1" vertex="1">
          <mxGeometry y="355" width="505.17" height="100" as="geometry" />
        </mxCell>
        <mxCell id="nGZjkU_BB-jmXCYSWLeB-12" value="" style="shape=partialRectangle;connectable=0;fillColor=none;top=0;left=0;bottom=0;right=0;editable=1;overflow=hidden;fillOpacity=100;strokeOpacity=100;enumerate=0;comic=0;strokeWidth=4;" parent="nGZjkU_BB-jmXCYSWLeB-11" vertex="1">
          <mxGeometry width="30" height="100" as="geometry">
            <mxRectangle width="30" height="100" as="alternateBounds" />
          </mxGeometry>
        </mxCell>
        <mxCell id="nGZjkU_BB-jmXCYSWLeB-13" value="description, text, not null" style="shape=partialRectangle;connectable=0;fillColor=none;top=0;left=0;bottom=0;right=0;align=left;spacingLeft=6;overflow=hidden;fillOpacity=100;strokeOpacity=100;enumerate=0;comic=0;strokeWidth=4;fontSize=25;" parent="nGZjkU_BB-jmXCYSWLeB-11" vertex="1">
          <mxGeometry x="30" width="475.17" height="100" as="geometry">
            <mxRectangle width="475.17" height="100" as="alternateBounds" />
          </mxGeometry>
        </mxCell>
        <mxCell id="nGZjkU_BB-jmXCYSWLeB-14" value="group" style="shape=table;startSize=55;container=1;collapsible=1;childLayout=tableLayout;fixedRows=1;rowLines=0;fontStyle=1;align=center;resizeLast=1;fillOpacity=100;strokeOpacity=100;enumerate=0;comic=0;flipH=1;fontSize=26;strokeWidth=4;" parent="1" vertex="1">
          <mxGeometry x="786.7" y="1180.09" width="408" height="455" as="geometry" />
        </mxCell>
        <mxCell id="nGZjkU_BB-jmXCYSWLeB-15" value="" style="shape=tableRow;horizontal=0;startSize=0;swimlaneHead=0;swimlaneBody=0;fillColor=none;collapsible=0;dropTarget=0;points=[[0,0.5],[1,0.5]];portConstraint=eastwest;top=0;left=0;right=0;bottom=1;fillOpacity=100;strokeOpacity=100;enumerate=0;comic=0;strokeWidth=4;" parent="nGZjkU_BB-jmXCYSWLeB-14" vertex="1">
          <mxGeometry y="55" width="408" height="100" as="geometry" />
        </mxCell>
        <mxCell id="nGZjkU_BB-jmXCYSWLeB-16" value="PK" style="shape=partialRectangle;connectable=0;fillColor=none;top=0;left=0;bottom=0;right=0;fontStyle=1;overflow=hidden;fillOpacity=100;strokeOpacity=100;enumerate=0;comic=0;strokeWidth=4;fontSize=18;" parent="nGZjkU_BB-jmXCYSWLeB-15" vertex="1">
          <mxGeometry width="30" height="100" as="geometry">
            <mxRectangle width="30" height="100" as="alternateBounds" />
          </mxGeometry>
        </mxCell>
        <mxCell id="nGZjkU_BB-jmXCYSWLeB-17" value="id, uuid" style="shape=partialRectangle;connectable=0;fillColor=none;top=0;left=0;bottom=0;right=0;align=left;spacingLeft=6;fontStyle=5;overflow=hidden;fillOpacity=100;strokeOpacity=100;enumerate=0;comic=0;strokeWidth=4;fontSize=25;" parent="nGZjkU_BB-jmXCYSWLeB-15" vertex="1">
          <mxGeometry x="30" width="378" height="100" as="geometry">
            <mxRectangle width="378" height="100" as="alternateBounds" />
          </mxGeometry>
        </mxCell>
        <mxCell id="nGZjkU_BB-jmXCYSWLeB-18" value="" style="shape=tableRow;horizontal=0;startSize=0;swimlaneHead=0;swimlaneBody=0;fillColor=none;collapsible=0;dropTarget=0;points=[[0,0.5],[1,0.5]];portConstraint=eastwest;top=0;left=0;right=0;bottom=0;fillOpacity=100;strokeOpacity=100;enumerate=0;comic=0;strokeWidth=4;" parent="nGZjkU_BB-jmXCYSWLeB-14" vertex="1">
          <mxGeometry y="155" width="408" height="100" as="geometry" />
        </mxCell>
        <mxCell id="nGZjkU_BB-jmXCYSWLeB-19" value="FK" style="shape=partialRectangle;connectable=0;fillColor=none;top=0;left=0;bottom=0;right=0;fontStyle=0;overflow=hidden;fillOpacity=100;strokeOpacity=100;enumerate=0;comic=0;strokeWidth=4;fontSize=18;" parent="nGZjkU_BB-jmXCYSWLeB-18" vertex="1">
          <mxGeometry width="30" height="100" as="geometry">
            <mxRectangle width="30" height="100" as="alternateBounds" />
          </mxGeometry>
        </mxCell>
        <mxCell id="nGZjkU_BB-jmXCYSWLeB-20" value="speciality_id, uuid, not null" style="shape=partialRectangle;connectable=0;fillColor=none;top=0;left=0;bottom=0;right=0;align=left;spacingLeft=6;fontStyle=0;overflow=hidden;fillOpacity=100;strokeOpacity=100;enumerate=0;comic=0;strokeWidth=4;fontSize=25;" parent="nGZjkU_BB-jmXCYSWLeB-18" vertex="1">
          <mxGeometry x="30" width="378" height="100" as="geometry">
            <mxRectangle width="378" height="100" as="alternateBounds" />
          </mxGeometry>
        </mxCell>
        <mxCell id="nGZjkU_BB-jmXCYSWLeB-21" value="" style="shape=tableRow;horizontal=0;startSize=0;swimlaneHead=0;swimlaneBody=0;fillColor=none;collapsible=0;dropTarget=0;points=[[0,0.5],[1,0.5]];portConstraint=eastwest;top=0;left=0;right=0;bottom=0;fillOpacity=100;strokeOpacity=100;enumerate=0;comic=0;strokeWidth=4;" parent="nGZjkU_BB-jmXCYSWLeB-14" vertex="1">
          <mxGeometry y="255" width="408" height="100" as="geometry" />
        </mxCell>
        <mxCell id="nGZjkU_BB-jmXCYSWLeB-22" value="FK" style="shape=partialRectangle;connectable=0;fillColor=none;top=0;left=0;bottom=0;right=0;editable=1;overflow=hidden;fillOpacity=100;strokeOpacity=100;enumerate=0;comic=0;strokeWidth=4;fontSize=18;" parent="nGZjkU_BB-jmXCYSWLeB-21" vertex="1">
          <mxGeometry width="30" height="100" as="geometry">
            <mxRectangle width="30" height="100" as="alternateBounds" />
          </mxGeometry>
        </mxCell>
        <mxCell id="nGZjkU_BB-jmXCYSWLeB-23" value="university_id, uuid, not null" style="shape=partialRectangle;connectable=0;fillColor=none;top=0;left=0;bottom=0;right=0;align=left;spacingLeft=6;overflow=hidden;fillOpacity=100;strokeOpacity=100;enumerate=0;comic=0;strokeWidth=4;fontSize=25;" parent="nGZjkU_BB-jmXCYSWLeB-21" vertex="1">
          <mxGeometry x="30" width="378" height="100" as="geometry">
            <mxRectangle width="378" height="100" as="alternateBounds" />
          </mxGeometry>
        </mxCell>
        <mxCell id="nGZjkU_BB-jmXCYSWLeB-24" value="" style="shape=tableRow;horizontal=0;startSize=0;swimlaneHead=0;swimlaneBody=0;fillColor=none;collapsible=0;dropTarget=0;points=[[0,0.5],[1,0.5]];portConstraint=eastwest;top=0;left=0;right=0;bottom=0;fillOpacity=100;strokeOpacity=100;enumerate=0;comic=0;strokeWidth=4;" parent="nGZjkU_BB-jmXCYSWLeB-14" vertex="1">
          <mxGeometry y="355" width="408" height="100" as="geometry" />
        </mxCell>
        <mxCell id="nGZjkU_BB-jmXCYSWLeB-25" value="" style="shape=partialRectangle;connectable=0;fillColor=none;top=0;left=0;bottom=0;right=0;editable=1;overflow=hidden;fillOpacity=100;strokeOpacity=100;enumerate=0;comic=0;strokeWidth=4;" parent="nGZjkU_BB-jmXCYSWLeB-24" vertex="1">
          <mxGeometry width="30" height="100" as="geometry">
            <mxRectangle width="30" height="100" as="alternateBounds" />
          </mxGeometry>
        </mxCell>
        <mxCell id="nGZjkU_BB-jmXCYSWLeB-26" value="group_name, text, not null" style="shape=partialRectangle;connectable=0;fillColor=none;top=0;left=0;bottom=0;right=0;align=left;spacingLeft=6;overflow=hidden;fillOpacity=100;strokeOpacity=100;enumerate=0;comic=0;strokeWidth=4;fontSize=25;" parent="nGZjkU_BB-jmXCYSWLeB-24" vertex="1">
          <mxGeometry x="30" width="378" height="100" as="geometry">
            <mxRectangle width="378" height="100" as="alternateBounds" />
          </mxGeometry>
        </mxCell>
        <mxCell id="nGZjkU_BB-jmXCYSWLeB-27" value="" style="edgeStyle=entityRelationEdgeStyle;fontSize=12;html=1;endArrow=ERoneToMany;rounded=0;entryX=1;entryY=0.5;entryDx=0;entryDy=0;exitX=0;exitY=0.5;exitDx=0;exitDy=0;fillOpacity=100;strokeOpacity=100;enumerate=0;comic=0;strokeWidth=4;" parent="1" source="nGZjkU_BB-jmXCYSWLeB-62" target="nGZjkU_BB-jmXCYSWLeB-18" edge="1">
          <mxGeometry width="100" height="100" relative="1" as="geometry">
            <mxPoint x="116.07804233522828" y="3541.8123499999992" as="sourcePoint" />
            <mxPoint x="475.2676098639918" y="1629.5134061" as="targetPoint" />
          </mxGeometry>
        </mxCell>
        <mxCell id="nGZjkU_BB-jmXCYSWLeB-28" value="subject" style="shape=table;startSize=55;container=1;collapsible=1;childLayout=tableLayout;fixedRows=1;rowLines=0;fontStyle=1;align=center;resizeLast=1;fillOpacity=100;strokeOpacity=100;enumerate=0;comic=0;flipH=1;fontSize=26;strokeWidth=4;" parent="1" vertex="1">
          <mxGeometry x="98.43" y="506.51" width="394.49" height="455" as="geometry" />
        </mxCell>
        <mxCell id="nGZjkU_BB-jmXCYSWLeB-29" value="" style="shape=tableRow;horizontal=0;startSize=0;swimlaneHead=0;swimlaneBody=0;fillColor=none;collapsible=0;dropTarget=0;points=[[0,0.5],[1,0.5]];portConstraint=eastwest;top=0;left=0;right=0;bottom=1;fillOpacity=100;strokeOpacity=100;enumerate=0;comic=0;strokeWidth=4;" parent="nGZjkU_BB-jmXCYSWLeB-28" vertex="1">
          <mxGeometry y="55" width="394.49" height="100" as="geometry" />
        </mxCell>
        <mxCell id="nGZjkU_BB-jmXCYSWLeB-30" value="PK" style="shape=partialRectangle;connectable=0;fillColor=none;top=0;left=0;bottom=0;right=0;fontStyle=1;overflow=hidden;fillOpacity=100;strokeOpacity=100;enumerate=0;comic=0;strokeWidth=4;fontSize=18;" parent="nGZjkU_BB-jmXCYSWLeB-29" vertex="1">
          <mxGeometry width="30" height="100" as="geometry">
            <mxRectangle width="30" height="100" as="alternateBounds" />
          </mxGeometry>
        </mxCell>
        <mxCell id="nGZjkU_BB-jmXCYSWLeB-31" value="id. uuid" style="shape=partialRectangle;connectable=0;fillColor=none;top=0;left=0;bottom=0;right=0;align=left;spacingLeft=6;fontStyle=5;overflow=hidden;fillOpacity=100;strokeOpacity=100;enumerate=0;comic=0;strokeWidth=4;fontSize=25;" parent="nGZjkU_BB-jmXCYSWLeB-29" vertex="1">
          <mxGeometry x="30" width="364.49" height="100" as="geometry">
            <mxRectangle width="364.49" height="100" as="alternateBounds" />
          </mxGeometry>
        </mxCell>
        <mxCell id="nGZjkU_BB-jmXCYSWLeB-32" value="" style="shape=tableRow;horizontal=0;startSize=0;swimlaneHead=0;swimlaneBody=0;fillColor=none;collapsible=0;dropTarget=0;points=[[0,0.5],[1,0.5]];portConstraint=eastwest;top=0;left=0;right=0;bottom=0;fillOpacity=100;strokeOpacity=100;enumerate=0;comic=0;strokeWidth=4;" parent="nGZjkU_BB-jmXCYSWLeB-28" vertex="1">
          <mxGeometry y="155" width="394.49" height="100" as="geometry" />
        </mxCell>
        <mxCell id="nGZjkU_BB-jmXCYSWLeB-33" value="FK" style="shape=partialRectangle;connectable=0;fillColor=none;top=0;left=0;bottom=0;right=0;fontStyle=0;overflow=hidden;fillOpacity=100;strokeOpacity=100;enumerate=0;comic=0;strokeWidth=4;fontSize=18;" parent="nGZjkU_BB-jmXCYSWLeB-32" vertex="1">
          <mxGeometry width="30" height="100" as="geometry">
            <mxRectangle width="30" height="100" as="alternateBounds" />
          </mxGeometry>
        </mxCell>
        <mxCell id="nGZjkU_BB-jmXCYSWLeB-34" value="group_id, uuid, not null" style="shape=partialRectangle;connectable=0;fillColor=none;top=0;left=0;bottom=0;right=0;align=left;spacingLeft=6;fontStyle=0;overflow=hidden;fillOpacity=100;strokeOpacity=100;enumerate=0;comic=0;strokeWidth=4;fontSize=25;" parent="nGZjkU_BB-jmXCYSWLeB-32" vertex="1">
          <mxGeometry x="30" width="364.49" height="100" as="geometry">
            <mxRectangle width="364.49" height="100" as="alternateBounds" />
          </mxGeometry>
        </mxCell>
        <mxCell id="nGZjkU_BB-jmXCYSWLeB-35" value="" style="shape=tableRow;horizontal=0;startSize=0;swimlaneHead=0;swimlaneBody=0;fillColor=none;collapsible=0;dropTarget=0;points=[[0,0.5],[1,0.5]];portConstraint=eastwest;top=0;left=0;right=0;bottom=0;fillOpacity=100;strokeOpacity=100;enumerate=0;comic=0;strokeWidth=4;" parent="nGZjkU_BB-jmXCYSWLeB-28" vertex="1">
          <mxGeometry y="255" width="394.49" height="100" as="geometry" />
        </mxCell>
        <mxCell id="nGZjkU_BB-jmXCYSWLeB-36" value="" style="shape=partialRectangle;connectable=0;fillColor=none;top=0;left=0;bottom=0;right=0;editable=1;overflow=hidden;fillOpacity=100;strokeOpacity=100;enumerate=0;comic=0;strokeWidth=4;" parent="nGZjkU_BB-jmXCYSWLeB-35" vertex="1">
          <mxGeometry width="30" height="100" as="geometry">
            <mxRectangle width="30" height="100" as="alternateBounds" />
          </mxGeometry>
        </mxCell>
        <mxCell id="nGZjkU_BB-jmXCYSWLeB-37" value="subject_name, text, not null" style="shape=partialRectangle;connectable=0;fillColor=none;top=0;left=0;bottom=0;right=0;align=left;spacingLeft=6;overflow=hidden;fillOpacity=100;strokeOpacity=100;enumerate=0;comic=0;strokeWidth=4;fontSize=25;" parent="nGZjkU_BB-jmXCYSWLeB-35" vertex="1">
          <mxGeometry x="30" width="364.49" height="100" as="geometry">
            <mxRectangle width="364.49" height="100" as="alternateBounds" />
          </mxGeometry>
        </mxCell>
        <mxCell id="nGZjkU_BB-jmXCYSWLeB-38" value="" style="shape=tableRow;horizontal=0;startSize=0;swimlaneHead=0;swimlaneBody=0;fillColor=none;collapsible=0;dropTarget=0;points=[[0,0.5],[1,0.5]];portConstraint=eastwest;top=0;left=0;right=0;bottom=0;fillOpacity=100;strokeOpacity=100;enumerate=0;comic=0;strokeWidth=4;" parent="nGZjkU_BB-jmXCYSWLeB-28" vertex="1">
          <mxGeometry y="355" width="394.49" height="100" as="geometry" />
        </mxCell>
        <mxCell id="nGZjkU_BB-jmXCYSWLeB-39" value="" style="shape=partialRectangle;connectable=0;fillColor=none;top=0;left=0;bottom=0;right=0;editable=1;overflow=hidden;fillOpacity=100;strokeOpacity=100;enumerate=0;comic=0;strokeWidth=4;" parent="nGZjkU_BB-jmXCYSWLeB-38" vertex="1">
          <mxGeometry width="30" height="100" as="geometry">
            <mxRectangle width="30" height="100" as="alternateBounds" />
          </mxGeometry>
        </mxCell>
        <mxCell id="nGZjkU_BB-jmXCYSWLeB-40" value="semester, int, not null" style="shape=partialRectangle;connectable=0;fillColor=none;top=0;left=0;bottom=0;right=0;align=left;spacingLeft=6;overflow=hidden;fillOpacity=100;strokeOpacity=100;enumerate=0;comic=0;strokeWidth=4;fontSize=25;" parent="nGZjkU_BB-jmXCYSWLeB-38" vertex="1">
          <mxGeometry x="30" width="364.49" height="100" as="geometry">
            <mxRectangle width="364.49" height="100" as="alternateBounds" />
          </mxGeometry>
        </mxCell>
        <mxCell id="nGZjkU_BB-jmXCYSWLeB-41" value="" style="edgeStyle=entityRelationEdgeStyle;fontSize=12;html=1;endArrow=ERoneToMany;rounded=0;entryX=1;entryY=0.5;entryDx=0;entryDy=0;exitX=0;exitY=0.5;exitDx=0;exitDy=0;fillOpacity=100;strokeOpacity=100;enumerate=0;comic=0;strokeWidth=4;" parent="1" source="nGZjkU_BB-jmXCYSWLeB-15" target="nGZjkU_BB-jmXCYSWLeB-32" edge="1">
          <mxGeometry width="100" height="100" relative="1" as="geometry">
            <mxPoint x="-1657.0311522865293" y="2045.3089060999998" as="sourcePoint" />
            <mxPoint x="-1864.655179759803" y="1768.1119061" as="targetPoint" />
          </mxGeometry>
        </mxCell>
        <mxCell id="nGZjkU_BB-jmXCYSWLeB-42" value="attachment_type" style="shape=table;startSize=55;container=1;collapsible=1;childLayout=tableLayout;fixedRows=1;rowLines=0;fontStyle=1;align=center;resizeLast=1;fillOpacity=100;strokeOpacity=100;enumerate=0;comic=0;flipH=1;fontSize=26;strokeWidth=4;" parent="1" vertex="1">
          <mxGeometry x="1940.94" y="322.83" width="373.72" height="246.7439999999998" as="geometry" />
        </mxCell>
        <mxCell id="nGZjkU_BB-jmXCYSWLeB-43" value="" style="shape=tableRow;horizontal=0;startSize=0;swimlaneHead=0;swimlaneBody=0;fillColor=none;collapsible=0;dropTarget=0;points=[[0,0.5],[1,0.5]];portConstraint=eastwest;top=0;left=0;right=0;bottom=1;fillOpacity=100;strokeOpacity=100;enumerate=0;comic=0;strokeWidth=4;" parent="nGZjkU_BB-jmXCYSWLeB-42" vertex="1">
          <mxGeometry y="55" width="373.72" height="91" as="geometry" />
        </mxCell>
        <mxCell id="nGZjkU_BB-jmXCYSWLeB-44" value="PK" style="shape=partialRectangle;connectable=0;fillColor=none;top=0;left=0;bottom=0;right=0;fontStyle=1;overflow=hidden;fillOpacity=100;strokeOpacity=100;enumerate=0;comic=0;strokeWidth=4;fontSize=18;" parent="nGZjkU_BB-jmXCYSWLeB-43" vertex="1">
          <mxGeometry width="30" height="91" as="geometry">
            <mxRectangle width="30" height="91" as="alternateBounds" />
          </mxGeometry>
        </mxCell>
        <mxCell id="nGZjkU_BB-jmXCYSWLeB-45" value="id,uuid" style="shape=partialRectangle;connectable=0;fillColor=none;top=0;left=0;bottom=0;right=0;align=left;spacingLeft=6;fontStyle=5;overflow=hidden;fillOpacity=100;strokeOpacity=100;enumerate=0;comic=0;strokeWidth=4;fontSize=25;" parent="nGZjkU_BB-jmXCYSWLeB-43" vertex="1">
          <mxGeometry x="30" width="343.72" height="91" as="geometry">
            <mxRectangle width="343.72" height="91" as="alternateBounds" />
          </mxGeometry>
        </mxCell>
        <mxCell id="nGZjkU_BB-jmXCYSWLeB-46" value="" style="shape=tableRow;horizontal=0;startSize=0;swimlaneHead=0;swimlaneBody=0;fillColor=none;collapsible=0;dropTarget=0;points=[[0,0.5],[1,0.5]];portConstraint=eastwest;top=0;left=0;right=0;bottom=0;fillOpacity=100;strokeOpacity=100;enumerate=0;comic=0;strokeWidth=4;" parent="nGZjkU_BB-jmXCYSWLeB-42" vertex="1">
          <mxGeometry y="146" width="373.72" height="100" as="geometry" />
        </mxCell>
        <mxCell id="nGZjkU_BB-jmXCYSWLeB-47" value="" style="shape=partialRectangle;connectable=0;fillColor=none;top=0;left=0;bottom=0;right=0;editable=1;overflow=hidden;fillOpacity=100;strokeOpacity=100;enumerate=0;comic=0;strokeWidth=4;" parent="nGZjkU_BB-jmXCYSWLeB-46" vertex="1">
          <mxGeometry width="30" height="100" as="geometry">
            <mxRectangle width="30" height="100" as="alternateBounds" />
          </mxGeometry>
        </mxCell>
        <mxCell id="nGZjkU_BB-jmXCYSWLeB-48" value="type_name, text, not null" style="shape=partialRectangle;connectable=0;fillColor=none;top=0;left=0;bottom=0;right=0;align=left;spacingLeft=6;overflow=hidden;fillOpacity=100;strokeOpacity=100;enumerate=0;comic=0;strokeWidth=4;fontSize=25;" parent="nGZjkU_BB-jmXCYSWLeB-46" vertex="1">
          <mxGeometry x="30" width="343.72" height="100" as="geometry">
            <mxRectangle width="343.72" height="100" as="alternateBounds" />
          </mxGeometry>
        </mxCell>
        <mxCell id="nGZjkU_BB-jmXCYSWLeB-49" value="page" style="shape=table;startSize=55;container=1;collapsible=1;childLayout=tableLayout;fixedRows=1;rowLines=0;fontStyle=1;align=center;resizeLast=1;fillOpacity=100;strokeOpacity=100;enumerate=0;comic=0;flipH=1;strokeWidth=4;fontSize=26;" parent="1" vertex="1">
          <mxGeometry x="555.2" y="62.99" width="373.94" height="357" as="geometry">
            <mxRectangle x="555.2" y="62.99" width="90.551" height="55" as="alternateBounds" />
          </mxGeometry>
        </mxCell>
        <mxCell id="nGZjkU_BB-jmXCYSWLeB-50" value="" style="shape=tableRow;horizontal=0;startSize=0;swimlaneHead=0;swimlaneBody=0;fillColor=none;collapsible=0;dropTarget=0;points=[[0,0.5],[1,0.5]];portConstraint=eastwest;top=0;left=0;right=0;bottom=1;fillOpacity=100;strokeOpacity=100;enumerate=0;comic=0;strokeWidth=4;" parent="nGZjkU_BB-jmXCYSWLeB-49" vertex="1">
          <mxGeometry y="55" width="373.94" height="100" as="geometry" />
        </mxCell>
        <mxCell id="nGZjkU_BB-jmXCYSWLeB-51" value="PK" style="shape=partialRectangle;connectable=0;fillColor=none;top=0;left=0;bottom=0;right=0;fontStyle=1;overflow=hidden;fillOpacity=100;strokeOpacity=100;enumerate=0;comic=0;strokeWidth=4;fontSize=18;" parent="nGZjkU_BB-jmXCYSWLeB-50" vertex="1">
          <mxGeometry width="30" height="100" as="geometry">
            <mxRectangle width="30" height="100" as="alternateBounds" />
          </mxGeometry>
        </mxCell>
        <mxCell id="nGZjkU_BB-jmXCYSWLeB-52" value="id,uuid" style="shape=partialRectangle;connectable=0;fillColor=none;top=0;left=0;bottom=0;right=0;align=left;spacingLeft=6;fontStyle=5;overflow=hidden;fillOpacity=100;strokeOpacity=100;enumerate=0;comic=0;fontSize=25;strokeWidth=4;" parent="nGZjkU_BB-jmXCYSWLeB-50" vertex="1">
          <mxGeometry x="30" width="343.94" height="100" as="geometry">
            <mxRectangle width="343.94" height="100" as="alternateBounds" />
          </mxGeometry>
        </mxCell>
        <mxCell id="nGZjkU_BB-jmXCYSWLeB-53" value="" style="shape=tableRow;horizontal=0;startSize=0;swimlaneHead=0;swimlaneBody=0;fillColor=none;collapsible=0;dropTarget=0;points=[[0,0.5],[1,0.5]];portConstraint=eastwest;top=0;left=0;right=0;bottom=0;fillOpacity=100;strokeOpacity=100;enumerate=0;comic=0;strokeWidth=4;" parent="nGZjkU_BB-jmXCYSWLeB-49" vertex="1">
          <mxGeometry y="155" width="373.94" height="100" as="geometry" />
        </mxCell>
        <mxCell id="nGZjkU_BB-jmXCYSWLeB-54" value="FK" style="shape=partialRectangle;connectable=0;fillColor=none;top=0;left=0;bottom=0;right=0;fontStyle=0;overflow=hidden;fillOpacity=100;strokeOpacity=100;enumerate=0;comic=0;strokeWidth=4;fontSize=18;" parent="nGZjkU_BB-jmXCYSWLeB-53" vertex="1">
          <mxGeometry width="30" height="100" as="geometry">
            <mxRectangle width="30" height="100" as="alternateBounds" />
          </mxGeometry>
        </mxCell>
        <mxCell id="nGZjkU_BB-jmXCYSWLeB-55" value="subject_id, uuid, not null" style="shape=partialRectangle;connectable=0;fillColor=none;top=0;left=0;bottom=0;right=0;align=left;spacingLeft=6;fontStyle=0;overflow=hidden;fillOpacity=100;strokeOpacity=100;enumerate=0;comic=0;fontSize=25;strokeWidth=4;" parent="nGZjkU_BB-jmXCYSWLeB-53" vertex="1">
          <mxGeometry x="30" width="343.94" height="100" as="geometry">
            <mxRectangle width="343.94" height="100" as="alternateBounds" />
          </mxGeometry>
        </mxCell>
        <mxCell id="nGZjkU_BB-jmXCYSWLeB-56" value="" style="shape=tableRow;horizontal=0;startSize=0;swimlaneHead=0;swimlaneBody=0;fillColor=none;collapsible=0;dropTarget=0;points=[[0,0.5],[1,0.5]];portConstraint=eastwest;top=0;left=0;right=0;bottom=0;fillOpacity=100;strokeOpacity=100;enumerate=0;comic=0;strokeWidth=4;" parent="nGZjkU_BB-jmXCYSWLeB-49" vertex="1">
          <mxGeometry y="255" width="373.94" height="100" as="geometry" />
        </mxCell>
        <mxCell id="nGZjkU_BB-jmXCYSWLeB-57" value="" style="shape=partialRectangle;connectable=0;fillColor=none;top=0;left=0;bottom=0;right=0;editable=1;overflow=hidden;fillOpacity=100;strokeOpacity=100;enumerate=0;comic=0;strokeWidth=4;" parent="nGZjkU_BB-jmXCYSWLeB-56" vertex="1">
          <mxGeometry width="30" height="100" as="geometry">
            <mxRectangle width="30" height="100" as="alternateBounds" />
          </mxGeometry>
        </mxCell>
        <mxCell id="nGZjkU_BB-jmXCYSWLeB-58" value="link, text, not null" style="shape=partialRectangle;connectable=0;fillColor=none;top=0;left=0;bottom=0;right=0;align=left;spacingLeft=6;overflow=hidden;fillOpacity=100;strokeOpacity=100;enumerate=0;comic=0;fontSize=25;strokeWidth=4;" parent="nGZjkU_BB-jmXCYSWLeB-56" vertex="1">
          <mxGeometry x="30" width="343.94" height="100" as="geometry">
            <mxRectangle width="343.94" height="100" as="alternateBounds" />
          </mxGeometry>
        </mxCell>
        <mxCell id="nGZjkU_BB-jmXCYSWLeB-59" value="" style="edgeStyle=entityRelationEdgeStyle;fontSize=12;html=1;endArrow=ERoneToMany;rounded=0;entryX=0;entryY=0.5;entryDx=0;entryDy=0;exitX=1;exitY=0.5;exitDx=0;exitDy=0;fillOpacity=100;strokeOpacity=100;enumerate=0;comic=0;strokeWidth=4;" parent="1" source="nGZjkU_BB-jmXCYSWLeB-29" target="nGZjkU_BB-jmXCYSWLeB-53" edge="1">
          <mxGeometry width="100" height="100" relative="1" as="geometry">
            <mxPoint x="-1847.0071374245747" y="1878.9907061" as="sourcePoint" />
            <mxPoint x="-2179.205581381813" y="687.0436060999998" as="targetPoint" />
          </mxGeometry>
        </mxCell>
        <mxCell id="nGZjkU_BB-jmXCYSWLeB-60" value="" style="edgeStyle=entityRelationEdgeStyle;fontSize=12;html=1;endArrow=ERoneToMany;rounded=0;entryX=0;entryY=0.5;entryDx=0;entryDy=0;exitX=1;exitY=0.5;exitDx=0;exitDy=0;fillOpacity=100;strokeOpacity=100;enumerate=0;comic=0;strokeWidth=4;" parent="1" source="nGZjkU_BB-jmXCYSWLeB-29" target="nGZjkU_BB-jmXCYSWLeB-5" edge="1">
          <mxGeometry width="100" height="100" relative="1" as="geometry">
            <mxPoint x="-1705.1038565594818" y="2086.5280999999995" as="sourcePoint" />
            <mxPoint x="-1891.965481285428" y="2252.8462999999992" as="targetPoint" />
          </mxGeometry>
        </mxCell>
        <mxCell id="nGZjkU_BB-jmXCYSWLeB-61" value="speciality" style="shape=table;startSize=55;container=1;collapsible=1;childLayout=tableLayout;fixedRows=1;rowLines=0;fontStyle=1;align=center;resizeLast=1;fillOpacity=100;strokeOpacity=100;enumerate=0;comic=0;flipH=1;fontSize=26;strokeWidth=4;" parent="1" vertex="1">
          <mxGeometry x="1619.56" y="1590.5500000000002" width="427.33" height="255" as="geometry" />
        </mxCell>
        <mxCell id="nGZjkU_BB-jmXCYSWLeB-62" value="" style="shape=tableRow;horizontal=0;startSize=0;swimlaneHead=0;swimlaneBody=0;fillColor=none;collapsible=0;dropTarget=0;points=[[0,0.5],[1,0.5]];portConstraint=eastwest;top=0;left=0;right=0;bottom=1;fillOpacity=100;strokeOpacity=100;enumerate=0;comic=0;strokeWidth=4;" parent="nGZjkU_BB-jmXCYSWLeB-61" vertex="1">
          <mxGeometry y="55" width="427.33" height="100" as="geometry" />
        </mxCell>
        <mxCell id="nGZjkU_BB-jmXCYSWLeB-63" value="PK" style="shape=partialRectangle;connectable=0;fillColor=none;top=0;left=0;bottom=0;right=0;fontStyle=1;overflow=hidden;fillOpacity=100;strokeOpacity=100;enumerate=0;comic=0;strokeWidth=4;fontSize=18;" parent="nGZjkU_BB-jmXCYSWLeB-62" vertex="1">
          <mxGeometry width="30" height="100" as="geometry">
            <mxRectangle width="30" height="100" as="alternateBounds" />
          </mxGeometry>
        </mxCell>
        <mxCell id="nGZjkU_BB-jmXCYSWLeB-64" value="id, uuid" style="shape=partialRectangle;connectable=0;fillColor=none;top=0;left=0;bottom=0;right=0;align=left;spacingLeft=6;fontStyle=5;overflow=hidden;fillOpacity=100;strokeOpacity=100;enumerate=0;comic=0;strokeWidth=4;fontSize=25;" parent="nGZjkU_BB-jmXCYSWLeB-62" vertex="1">
          <mxGeometry x="30" width="397.33" height="100" as="geometry">
            <mxRectangle width="397.33" height="100" as="alternateBounds" />
          </mxGeometry>
        </mxCell>
        <mxCell id="nGZjkU_BB-jmXCYSWLeB-65" value="" style="shape=tableRow;horizontal=0;startSize=0;swimlaneHead=0;swimlaneBody=0;fillColor=none;collapsible=0;dropTarget=0;points=[[0,0.5],[1,0.5]];portConstraint=eastwest;top=0;left=0;right=0;bottom=0;fillOpacity=100;strokeOpacity=100;enumerate=0;comic=0;strokeWidth=4;" parent="nGZjkU_BB-jmXCYSWLeB-61" vertex="1">
          <mxGeometry y="155" width="427.33" height="100" as="geometry" />
        </mxCell>
        <mxCell id="nGZjkU_BB-jmXCYSWLeB-66" value="" style="shape=partialRectangle;connectable=0;fillColor=none;top=0;left=0;bottom=0;right=0;editable=1;overflow=hidden;fillOpacity=100;strokeOpacity=100;enumerate=0;comic=0;strokeWidth=4;" parent="nGZjkU_BB-jmXCYSWLeB-65" vertex="1">
          <mxGeometry width="30" height="100" as="geometry">
            <mxRectangle width="30" height="100" as="alternateBounds" />
          </mxGeometry>
        </mxCell>
        <mxCell id="nGZjkU_BB-jmXCYSWLeB-67" value="speciality_name, text, not null" style="shape=partialRectangle;connectable=0;fillColor=none;top=0;left=0;bottom=0;right=0;align=left;spacingLeft=6;overflow=hidden;fillOpacity=100;strokeOpacity=100;enumerate=0;comic=0;strokeWidth=4;fontSize=25;" parent="nGZjkU_BB-jmXCYSWLeB-65" vertex="1">
          <mxGeometry x="30" width="397.33" height="100" as="geometry">
            <mxRectangle width="397.33" height="100" as="alternateBounds" />
          </mxGeometry>
        </mxCell>
        <mxCell id="nGZjkU_BB-jmXCYSWLeB-68" value="employee" style="shape=table;startSize=55;container=1;collapsible=1;childLayout=tableLayout;fixedRows=1;rowLines=0;fontStyle=1;align=center;resizeLast=1;fillOpacity=100;strokeOpacity=100;enumerate=0;comic=0;flipH=1;fontSize=26;strokeWidth=4;" parent="1" vertex="1">
          <mxGeometry x="204.72" y="2279.52" width="466.71" height="599" as="geometry" />
        </mxCell>
        <mxCell id="nGZjkU_BB-jmXCYSWLeB-69" value="" style="shape=tableRow;horizontal=0;startSize=0;swimlaneHead=0;swimlaneBody=0;fillColor=none;collapsible=0;dropTarget=0;points=[[0,0.5],[1,0.5]];portConstraint=eastwest;top=0;left=0;right=0;bottom=1;fillOpacity=100;strokeOpacity=100;enumerate=0;comic=0;strokeWidth=4;" parent="nGZjkU_BB-jmXCYSWLeB-68" vertex="1">
          <mxGeometry y="55" width="466.71" height="100" as="geometry" />
        </mxCell>
        <mxCell id="nGZjkU_BB-jmXCYSWLeB-70" value="PK" style="shape=partialRectangle;connectable=0;fillColor=none;top=0;left=0;bottom=0;right=0;fontStyle=1;overflow=hidden;fillOpacity=100;strokeOpacity=100;enumerate=0;comic=0;strokeWidth=4;fontSize=18;" parent="nGZjkU_BB-jmXCYSWLeB-69" vertex="1">
          <mxGeometry width="30" height="100" as="geometry">
            <mxRectangle width="30" height="100" as="alternateBounds" />
          </mxGeometry>
        </mxCell>
        <mxCell id="nGZjkU_BB-jmXCYSWLeB-71" value="id, uuid" style="shape=partialRectangle;connectable=0;fillColor=none;top=0;left=0;bottom=0;right=0;align=left;spacingLeft=6;fontStyle=5;overflow=hidden;fillOpacity=100;strokeOpacity=100;enumerate=0;comic=0;fontSize=23;verticalAlign=middle;spacingTop=0;horizontal=1;strokeWidth=4;" parent="nGZjkU_BB-jmXCYSWLeB-69" vertex="1">
          <mxGeometry x="30" width="436.71" height="100" as="geometry">
            <mxRectangle width="436.71" height="100" as="alternateBounds" />
          </mxGeometry>
        </mxCell>
        <mxCell id="nGZjkU_BB-jmXCYSWLeB-72" value="" style="shape=tableRow;horizontal=0;startSize=0;swimlaneHead=0;swimlaneBody=0;fillColor=none;collapsible=0;dropTarget=0;points=[[0,0.5],[1,0.5]];portConstraint=eastwest;top=0;left=0;right=0;bottom=0;fillOpacity=100;strokeOpacity=100;enumerate=0;comic=0;strokeWidth=4;" parent="nGZjkU_BB-jmXCYSWLeB-68" vertex="1">
          <mxGeometry y="155" width="466.71" height="76" as="geometry" />
        </mxCell>
        <mxCell id="nGZjkU_BB-jmXCYSWLeB-73" value="" style="shape=partialRectangle;connectable=0;fillColor=none;top=0;left=0;bottom=0;right=0;editable=1;overflow=hidden;fillOpacity=100;strokeOpacity=100;enumerate=0;comic=0;strokeWidth=4;" parent="nGZjkU_BB-jmXCYSWLeB-72" vertex="1">
          <mxGeometry width="30" height="76" as="geometry">
            <mxRectangle width="30" height="76" as="alternateBounds" />
          </mxGeometry>
        </mxCell>
        <mxCell id="nGZjkU_BB-jmXCYSWLeB-74" value="first_name, text, not null" style="shape=partialRectangle;connectable=0;fillColor=none;top=0;left=0;bottom=0;right=0;align=left;spacingLeft=6;overflow=hidden;fillOpacity=100;strokeOpacity=100;enumerate=0;comic=0;fontSize=23;verticalAlign=middle;spacingTop=0;horizontal=1;strokeWidth=4;" parent="nGZjkU_BB-jmXCYSWLeB-72" vertex="1">
          <mxGeometry x="30" width="436.71" height="76" as="geometry">
            <mxRectangle width="436.71" height="76" as="alternateBounds" />
          </mxGeometry>
        </mxCell>
        <mxCell id="nGZjkU_BB-jmXCYSWLeB-75" value="" style="shape=tableRow;horizontal=0;startSize=0;swimlaneHead=0;swimlaneBody=0;fillColor=none;collapsible=0;dropTarget=0;points=[[0,0.5],[1,0.5]];portConstraint=eastwest;top=0;left=0;right=0;bottom=0;fillOpacity=100;strokeOpacity=100;enumerate=0;comic=0;strokeWidth=4;" parent="nGZjkU_BB-jmXCYSWLeB-68" vertex="1">
          <mxGeometry y="231" width="466.71" height="63" as="geometry" />
        </mxCell>
        <mxCell id="nGZjkU_BB-jmXCYSWLeB-76" value="" style="shape=partialRectangle;connectable=0;fillColor=none;top=0;left=0;bottom=0;right=0;editable=1;overflow=hidden;fillOpacity=100;strokeOpacity=100;enumerate=0;comic=0;strokeWidth=4;" parent="nGZjkU_BB-jmXCYSWLeB-75" vertex="1">
          <mxGeometry width="30" height="63" as="geometry">
            <mxRectangle width="30" height="63" as="alternateBounds" />
          </mxGeometry>
        </mxCell>
        <mxCell id="nGZjkU_BB-jmXCYSWLeB-77" value="last_name, text, not null" style="shape=partialRectangle;connectable=0;fillColor=none;top=0;left=0;bottom=0;right=0;align=left;spacingLeft=6;overflow=hidden;fillOpacity=100;strokeOpacity=100;enumerate=0;comic=0;fontSize=23;verticalAlign=middle;spacingTop=0;horizontal=1;strokeWidth=4;" parent="nGZjkU_BB-jmXCYSWLeB-75" vertex="1">
          <mxGeometry x="30" width="436.71" height="63" as="geometry">
            <mxRectangle width="436.71" height="63" as="alternateBounds" />
          </mxGeometry>
        </mxCell>
        <mxCell id="nGZjkU_BB-jmXCYSWLeB-78" value="" style="shape=tableRow;horizontal=0;startSize=0;swimlaneHead=0;swimlaneBody=0;fillColor=none;collapsible=0;dropTarget=0;points=[[0,0.5],[1,0.5]];portConstraint=eastwest;top=0;left=0;right=0;bottom=0;fillOpacity=100;strokeOpacity=100;enumerate=0;comic=0;strokeWidth=4;" parent="nGZjkU_BB-jmXCYSWLeB-68" vertex="1">
          <mxGeometry y="294" width="466.71" height="80" as="geometry" />
        </mxCell>
        <mxCell id="nGZjkU_BB-jmXCYSWLeB-79" value="" style="shape=partialRectangle;connectable=0;fillColor=none;top=0;left=0;bottom=0;right=0;editable=1;overflow=hidden;fillOpacity=100;strokeOpacity=100;enumerate=0;comic=0;strokeWidth=4;" parent="nGZjkU_BB-jmXCYSWLeB-78" vertex="1">
          <mxGeometry width="30" height="80" as="geometry">
            <mxRectangle width="30" height="80" as="alternateBounds" />
          </mxGeometry>
        </mxCell>
        <mxCell id="nGZjkU_BB-jmXCYSWLeB-80" value="patronymic, text, not null" style="shape=partialRectangle;connectable=0;fillColor=none;top=0;left=0;bottom=0;right=0;align=left;spacingLeft=6;overflow=hidden;fillOpacity=100;strokeOpacity=100;enumerate=0;comic=0;fontSize=23;verticalAlign=middle;spacingTop=0;horizontal=1;strokeWidth=4;" parent="nGZjkU_BB-jmXCYSWLeB-78" vertex="1">
          <mxGeometry x="30" width="436.71" height="80" as="geometry">
            <mxRectangle width="436.71" height="80" as="alternateBounds" />
          </mxGeometry>
        </mxCell>
        <mxCell id="nGZjkU_BB-jmXCYSWLeB-81" value="" style="shape=tableRow;horizontal=0;startSize=0;swimlaneHead=0;swimlaneBody=0;fillColor=none;collapsible=0;dropTarget=0;points=[[0,0.5],[1,0.5]];portConstraint=eastwest;top=0;left=0;right=0;bottom=0;fillOpacity=100;strokeOpacity=100;enumerate=0;comic=0;strokeWidth=4;" parent="nGZjkU_BB-jmXCYSWLeB-68" vertex="1">
          <mxGeometry y="374" width="466.71" height="66" as="geometry" />
        </mxCell>
        <mxCell id="nGZjkU_BB-jmXCYSWLeB-82" value="" style="shape=partialRectangle;connectable=0;fillColor=none;top=0;left=0;bottom=0;right=0;editable=1;overflow=hidden;fillOpacity=100;strokeOpacity=100;enumerate=0;comic=0;strokeWidth=4;" parent="nGZjkU_BB-jmXCYSWLeB-81" vertex="1">
          <mxGeometry width="30" height="66" as="geometry">
            <mxRectangle width="30" height="66" as="alternateBounds" />
          </mxGeometry>
        </mxCell>
        <mxCell id="nGZjkU_BB-jmXCYSWLeB-83" value="email, text, null" style="shape=partialRectangle;connectable=0;fillColor=none;top=0;left=0;bottom=0;right=0;align=left;spacingLeft=6;overflow=hidden;fillOpacity=100;strokeOpacity=100;enumerate=0;comic=0;fontSize=23;verticalAlign=middle;spacingTop=0;horizontal=1;strokeWidth=4;" parent="nGZjkU_BB-jmXCYSWLeB-81" vertex="1">
          <mxGeometry x="30" width="436.71" height="66" as="geometry">
            <mxRectangle width="436.71" height="66" as="alternateBounds" />
          </mxGeometry>
        </mxCell>
        <mxCell id="nGZjkU_BB-jmXCYSWLeB-84" value="" style="shape=tableRow;horizontal=0;startSize=0;swimlaneHead=0;swimlaneBody=0;fillColor=none;collapsible=0;dropTarget=0;points=[[0,0.5],[1,0.5]];portConstraint=eastwest;top=0;left=0;right=0;bottom=0;fillOpacity=100;strokeOpacity=100;enumerate=0;comic=0;strokeWidth=4;" parent="nGZjkU_BB-jmXCYSWLeB-68" vertex="1">
          <mxGeometry y="440" width="466.71" height="63" as="geometry" />
        </mxCell>
        <mxCell id="nGZjkU_BB-jmXCYSWLeB-85" value="" style="shape=partialRectangle;connectable=0;fillColor=none;top=0;left=0;bottom=0;right=0;editable=1;overflow=hidden;fillOpacity=100;strokeOpacity=100;enumerate=0;comic=0;strokeWidth=4;" parent="nGZjkU_BB-jmXCYSWLeB-84" vertex="1">
          <mxGeometry width="30" height="63" as="geometry">
            <mxRectangle width="30" height="63" as="alternateBounds" />
          </mxGeometry>
        </mxCell>
        <mxCell id="nGZjkU_BB-jmXCYSWLeB-86" value="phone, text, null" style="shape=partialRectangle;connectable=0;fillColor=none;top=0;left=0;bottom=0;right=0;align=left;spacingLeft=6;overflow=hidden;fillOpacity=100;strokeOpacity=100;enumerate=0;comic=0;fontSize=23;verticalAlign=middle;spacingTop=0;horizontal=1;strokeWidth=4;" parent="nGZjkU_BB-jmXCYSWLeB-84" vertex="1">
          <mxGeometry x="30" width="436.71" height="63" as="geometry">
            <mxRectangle width="436.71" height="63" as="alternateBounds" />
          </mxGeometry>
        </mxCell>
        <mxCell id="nGZjkU_BB-jmXCYSWLeB-87" value="" style="shape=tableRow;horizontal=0;startSize=0;swimlaneHead=0;swimlaneBody=0;fillColor=none;collapsible=0;dropTarget=0;points=[[0,0.5],[1,0.5]];portConstraint=eastwest;top=0;left=0;right=0;bottom=0;fillOpacity=100;strokeOpacity=100;enumerate=0;comic=0;strokeWidth=4;" parent="nGZjkU_BB-jmXCYSWLeB-68" vertex="1">
          <mxGeometry y="503" width="466.71" height="96" as="geometry" />
        </mxCell>
        <mxCell id="nGZjkU_BB-jmXCYSWLeB-88" value="" style="shape=partialRectangle;connectable=0;fillColor=none;top=0;left=0;bottom=0;right=0;editable=1;overflow=hidden;fillOpacity=100;strokeOpacity=100;enumerate=0;comic=0;strokeWidth=4;" parent="nGZjkU_BB-jmXCYSWLeB-87" vertex="1">
          <mxGeometry width="30" height="96" as="geometry">
            <mxRectangle width="30" height="96" as="alternateBounds" />
          </mxGeometry>
        </mxCell>
        <mxCell id="nGZjkU_BB-jmXCYSWLeB-89" value="link, text, null" style="shape=partialRectangle;connectable=0;fillColor=none;top=0;left=0;bottom=0;right=0;align=left;spacingLeft=6;overflow=hidden;fillOpacity=100;strokeOpacity=100;enumerate=0;comic=0;fontSize=23;verticalAlign=middle;spacingTop=0;horizontal=1;strokeWidth=4;" parent="nGZjkU_BB-jmXCYSWLeB-87" vertex="1">
          <mxGeometry x="30" width="436.71" height="96" as="geometry">
            <mxRectangle width="436.71" height="96" as="alternateBounds" />
          </mxGeometry>
        </mxCell>
        <mxCell id="nGZjkU_BB-jmXCYSWLeB-90" value="сertificate" style="shape=table;startSize=55;container=1;collapsible=1;childLayout=tableLayout;fixedRows=1;rowLines=0;fontStyle=1;align=center;resizeLast=1;fillOpacity=100;strokeOpacity=100;enumerate=0;comic=0;flipH=1;fontSize=26;strokeWidth=4;" parent="1" vertex="1">
          <mxGeometry x="1572.56" y="2114.25" width="498.3" height="455.75" as="geometry" />
        </mxCell>
        <mxCell id="nGZjkU_BB-jmXCYSWLeB-91" value="" style="shape=tableRow;horizontal=0;startSize=0;swimlaneHead=0;swimlaneBody=0;fillColor=none;collapsible=0;dropTarget=0;points=[[0,0.5],[1,0.5]];portConstraint=eastwest;top=0;left=0;right=0;bottom=1;fillOpacity=100;strokeOpacity=100;enumerate=0;comic=0;strokeWidth=4;" parent="nGZjkU_BB-jmXCYSWLeB-90" vertex="1">
          <mxGeometry y="55" width="498.3" height="100" as="geometry" />
        </mxCell>
        <mxCell id="nGZjkU_BB-jmXCYSWLeB-92" value="PK" style="shape=partialRectangle;connectable=0;fillColor=none;top=0;left=0;bottom=0;right=0;fontStyle=1;overflow=hidden;fillOpacity=100;strokeOpacity=100;enumerate=0;comic=0;strokeWidth=4;fontSize=18;" parent="nGZjkU_BB-jmXCYSWLeB-91" vertex="1">
          <mxGeometry width="30" height="100" as="geometry">
            <mxRectangle width="30" height="100" as="alternateBounds" />
          </mxGeometry>
        </mxCell>
        <mxCell id="nGZjkU_BB-jmXCYSWLeB-93" value="id, uuid" style="shape=partialRectangle;connectable=0;fillColor=none;top=0;left=0;bottom=0;right=0;align=left;spacingLeft=6;fontStyle=5;overflow=hidden;fillOpacity=100;strokeOpacity=100;enumerate=0;comic=0;strokeWidth=4;fontSize=25;" parent="nGZjkU_BB-jmXCYSWLeB-91" vertex="1">
          <mxGeometry x="30" width="468.3" height="100" as="geometry">
            <mxRectangle width="468.3" height="100" as="alternateBounds" />
          </mxGeometry>
        </mxCell>
        <mxCell id="nGZjkU_BB-jmXCYSWLeB-94" value="" style="shape=tableRow;horizontal=0;startSize=0;swimlaneHead=0;swimlaneBody=0;fillColor=none;collapsible=0;dropTarget=0;points=[[0,0.5],[1,0.5]];portConstraint=eastwest;top=0;left=0;right=0;bottom=0;fillOpacity=100;strokeOpacity=100;enumerate=0;comic=0;strokeWidth=4;" parent="nGZjkU_BB-jmXCYSWLeB-90" vertex="1">
          <mxGeometry y="155" width="498.3" height="100" as="geometry" />
        </mxCell>
        <mxCell id="nGZjkU_BB-jmXCYSWLeB-95" value="" style="shape=partialRectangle;connectable=0;fillColor=none;top=0;left=0;bottom=0;right=0;editable=1;overflow=hidden;fillOpacity=100;strokeOpacity=100;enumerate=0;comic=0;strokeWidth=4;" parent="nGZjkU_BB-jmXCYSWLeB-94" vertex="1">
          <mxGeometry width="30" height="100" as="geometry">
            <mxRectangle width="30" height="100" as="alternateBounds" />
          </mxGeometry>
        </mxCell>
        <mxCell id="nGZjkU_BB-jmXCYSWLeB-96" value="certificate_name, text, not null" style="shape=partialRectangle;connectable=0;fillColor=none;top=0;left=0;bottom=0;right=0;align=left;spacingLeft=6;overflow=hidden;fillOpacity=100;strokeOpacity=100;enumerate=0;comic=0;strokeWidth=4;fontSize=25;" parent="nGZjkU_BB-jmXCYSWLeB-94" vertex="1">
          <mxGeometry x="30" width="468.3" height="100" as="geometry">
            <mxRectangle width="468.3" height="100" as="alternateBounds" />
          </mxGeometry>
        </mxCell>
        <mxCell id="nGZjkU_BB-jmXCYSWLeB-97" value="" style="shape=tableRow;horizontal=0;startSize=0;swimlaneHead=0;swimlaneBody=0;fillColor=none;collapsible=0;dropTarget=0;points=[[0,0.5],[1,0.5]];portConstraint=eastwest;top=0;left=0;right=0;bottom=0;fillOpacity=100;strokeOpacity=100;enumerate=0;comic=0;strokeWidth=4;" parent="nGZjkU_BB-jmXCYSWLeB-90" vertex="1">
          <mxGeometry y="255" width="498.3" height="100" as="geometry" />
        </mxCell>
        <mxCell id="nGZjkU_BB-jmXCYSWLeB-98" value="" style="shape=partialRectangle;connectable=0;fillColor=none;top=0;left=0;bottom=0;right=0;editable=1;overflow=hidden;fillOpacity=100;strokeOpacity=100;enumerate=0;comic=0;strokeWidth=4;" parent="nGZjkU_BB-jmXCYSWLeB-97" vertex="1">
          <mxGeometry width="30" height="100" as="geometry">
            <mxRectangle width="30" height="100" as="alternateBounds" />
          </mxGeometry>
        </mxCell>
        <mxCell id="nGZjkU_BB-jmXCYSWLeB-99" value="certificate_description, text, not null" style="shape=partialRectangle;connectable=0;fillColor=none;top=0;left=0;bottom=0;right=0;align=left;spacingLeft=6;overflow=hidden;fillOpacity=100;strokeOpacity=100;enumerate=0;comic=0;strokeWidth=4;fontSize=25;" parent="nGZjkU_BB-jmXCYSWLeB-97" vertex="1">
          <mxGeometry x="30" width="468.3" height="100" as="geometry">
            <mxRectangle width="468.3" height="100" as="alternateBounds" />
          </mxGeometry>
        </mxCell>
        <mxCell id="nGZjkU_BB-jmXCYSWLeB-100" value="" style="shape=tableRow;horizontal=0;startSize=0;swimlaneHead=0;swimlaneBody=0;fillColor=none;collapsible=0;dropTarget=0;points=[[0,0.5],[1,0.5]];portConstraint=eastwest;top=0;left=0;right=0;bottom=0;fillOpacity=100;strokeOpacity=100;enumerate=0;comic=0;strokeWidth=4;fontSize=25;" parent="nGZjkU_BB-jmXCYSWLeB-90" vertex="1">
          <mxGeometry y="355" width="498.3" height="100" as="geometry" />
        </mxCell>
        <mxCell id="nGZjkU_BB-jmXCYSWLeB-101" value="" style="shape=partialRectangle;connectable=0;fillColor=none;top=0;left=0;bottom=0;right=0;editable=1;overflow=hidden;fillOpacity=100;strokeOpacity=100;enumerate=0;comic=0;strokeWidth=4;" parent="nGZjkU_BB-jmXCYSWLeB-100" vertex="1">
          <mxGeometry width="30" height="100" as="geometry">
            <mxRectangle width="30" height="100" as="alternateBounds" />
          </mxGeometry>
        </mxCell>
        <mxCell id="nGZjkU_BB-jmXCYSWLeB-102" value="office, text, not null" style="shape=partialRectangle;connectable=0;fillColor=none;top=0;left=0;bottom=0;right=0;align=left;spacingLeft=6;overflow=hidden;fillOpacity=100;strokeOpacity=100;enumerate=0;comic=0;strokeWidth=4;fontSize=25;" parent="nGZjkU_BB-jmXCYSWLeB-100" vertex="1">
          <mxGeometry x="30" width="468.3" height="100" as="geometry">
            <mxRectangle width="468.3" height="100" as="alternateBounds" />
          </mxGeometry>
        </mxCell>
        <mxCell id="nGZjkU_BB-jmXCYSWLeB-103" value="speciality_employee" style="shape=table;startSize=55;container=1;collapsible=1;childLayout=tableLayout;fixedRows=1;rowLines=0;fontStyle=1;align=center;resizeLast=1;fillOpacity=100;strokeOpacity=100;enumerate=0;comic=0;flipH=1;fontSize=26;strokeWidth=4;" parent="1" vertex="1">
          <mxGeometry x="638.25" y="1753.89" width="519.06" height="255" as="geometry" />
        </mxCell>
        <mxCell id="nGZjkU_BB-jmXCYSWLeB-104" value="" style="shape=tableRow;horizontal=0;startSize=0;swimlaneHead=0;swimlaneBody=0;fillColor=none;collapsible=0;dropTarget=0;points=[[0,0.5],[1,0.5]];portConstraint=eastwest;top=0;left=0;right=0;bottom=1;fillOpacity=100;strokeOpacity=100;enumerate=0;comic=0;strokeWidth=4;" parent="nGZjkU_BB-jmXCYSWLeB-103" vertex="1">
          <mxGeometry y="55" width="519.06" height="100" as="geometry" />
        </mxCell>
        <mxCell id="nGZjkU_BB-jmXCYSWLeB-105" value="PK" style="shape=partialRectangle;connectable=0;fillColor=none;top=0;left=0;bottom=0;right=0;fontStyle=1;overflow=hidden;fillOpacity=100;strokeOpacity=100;enumerate=0;comic=0;strokeWidth=4;fontSize=18;" parent="nGZjkU_BB-jmXCYSWLeB-104" vertex="1">
          <mxGeometry width="30" height="100" as="geometry">
            <mxRectangle width="30" height="100" as="alternateBounds" />
          </mxGeometry>
        </mxCell>
        <mxCell id="nGZjkU_BB-jmXCYSWLeB-106" value="speciality_id, uuid" style="shape=partialRectangle;connectable=0;fillColor=none;top=0;left=0;bottom=0;right=0;align=left;spacingLeft=6;fontStyle=5;overflow=hidden;fillOpacity=100;strokeOpacity=100;enumerate=0;comic=0;strokeWidth=4;fontSize=25;" parent="nGZjkU_BB-jmXCYSWLeB-104" vertex="1">
          <mxGeometry x="30" width="489.05999999999995" height="100" as="geometry">
            <mxRectangle width="489.05999999999995" height="100" as="alternateBounds" />
          </mxGeometry>
        </mxCell>
        <mxCell id="nGZjkU_BB-jmXCYSWLeB-107" value="" style="shape=tableRow;horizontal=0;startSize=0;swimlaneHead=0;swimlaneBody=0;fillColor=none;collapsible=0;dropTarget=0;points=[[0,0.5],[1,0.5]];portConstraint=eastwest;top=0;left=0;right=0;bottom=1;swimlaneLine=0;strokeColor=none;fillOpacity=100;strokeOpacity=100;enumerate=0;comic=0;strokeWidth=4;" parent="nGZjkU_BB-jmXCYSWLeB-103" vertex="1">
          <mxGeometry y="155" width="519.06" height="100" as="geometry" />
        </mxCell>
        <mxCell id="nGZjkU_BB-jmXCYSWLeB-108" value="PK" style="shape=partialRectangle;connectable=0;fillColor=none;top=0;left=0;bottom=0;right=0;fontStyle=1;overflow=hidden;fillOpacity=100;strokeOpacity=100;enumerate=0;comic=0;strokeWidth=4;fontSize=18;" parent="nGZjkU_BB-jmXCYSWLeB-107" vertex="1">
          <mxGeometry width="30" height="100" as="geometry">
            <mxRectangle width="30" height="100" as="alternateBounds" />
          </mxGeometry>
        </mxCell>
        <mxCell id="nGZjkU_BB-jmXCYSWLeB-109" value="employee_id, uuid" style="shape=partialRectangle;connectable=0;fillColor=none;top=0;left=0;bottom=0;right=0;align=left;spacingLeft=6;fontStyle=5;overflow=hidden;labelBorderColor=none;fillOpacity=100;strokeOpacity=100;enumerate=0;comic=0;strokeWidth=4;fontSize=25;" parent="nGZjkU_BB-jmXCYSWLeB-107" vertex="1">
          <mxGeometry x="30" width="489.05999999999995" height="100" as="geometry">
            <mxRectangle width="489.05999999999995" height="100" as="alternateBounds" />
          </mxGeometry>
        </mxCell>
        <mxCell id="nGZjkU_BB-jmXCYSWLeB-110" value="" style="edgeStyle=entityRelationEdgeStyle;fontSize=12;html=1;endArrow=ERoneToMany;rounded=0;exitX=0;exitY=0.5;exitDx=0;exitDy=0;entryX=1;entryY=0.5;entryDx=0;entryDy=0;fillOpacity=100;strokeOpacity=100;enumerate=0;comic=0;strokeWidth=4;" parent="1" source="nGZjkU_BB-jmXCYSWLeB-62" target="nGZjkU_BB-jmXCYSWLeB-104" edge="1">
          <mxGeometry width="100" height="100" relative="1" as="geometry">
            <mxPoint x="-803.0320024834596" y="3500.2327999999993" as="sourcePoint" />
            <mxPoint x="-565.966887914476" y="3195.316099999999" as="targetPoint" />
          </mxGeometry>
        </mxCell>
        <mxCell id="nGZjkU_BB-jmXCYSWLeB-111" value="" style="edgeStyle=orthogonalEdgeStyle;fontSize=12;html=1;endArrow=ERoneToMany;rounded=0;exitX=0;exitY=0.5;exitDx=0;exitDy=0;entryX=0;entryY=0.5;entryDx=0;entryDy=0;fillOpacity=100;strokeOpacity=100;enumerate=0;comic=0;strokeWidth=4;" parent="1" source="nGZjkU_BB-jmXCYSWLeB-69" target="nGZjkU_BB-jmXCYSWLeB-107" edge="1">
          <mxGeometry width="100" height="100" relative="1" as="geometry">
            <mxPoint x="-1304.5923317081817" y="1961.7894499999995" as="sourcePoint" />
            <mxPoint x="-1233.6264391178172" y="2102.3158061735726" as="targetPoint" />
            <Array as="points">
              <mxPoint x="157" y="2384" />
              <mxPoint x="157" y="1959" />
            </Array>
          </mxGeometry>
        </mxCell>
        <mxCell id="nGZjkU_BB-jmXCYSWLeB-112" value="employee_сertificate" style="shape=table;startSize=55;container=1;collapsible=1;childLayout=tableLayout;fixedRows=1;rowLines=0;fontStyle=1;align=center;resizeLast=1;fillOpacity=100;strokeOpacity=100;enumerate=0;comic=0;flipH=1;fontSize=26;strokeWidth=4;" parent="1" vertex="1">
          <mxGeometry x="951.39" y="2114.25" width="415.25" height="255.83" as="geometry" />
        </mxCell>
        <mxCell id="nGZjkU_BB-jmXCYSWLeB-113" value="" style="shape=tableRow;horizontal=0;startSize=0;swimlaneHead=0;swimlaneBody=0;fillColor=none;collapsible=0;dropTarget=0;points=[[0,0.5],[1,0.5]];portConstraint=eastwest;top=0;left=0;right=0;bottom=1;fillOpacity=100;strokeOpacity=100;enumerate=0;comic=0;strokeWidth=4;" parent="nGZjkU_BB-jmXCYSWLeB-112" vertex="1">
          <mxGeometry y="55" width="415.25" height="100" as="geometry" />
        </mxCell>
        <mxCell id="nGZjkU_BB-jmXCYSWLeB-114" value="PK" style="shape=partialRectangle;connectable=0;fillColor=none;top=0;left=0;bottom=0;right=0;fontStyle=1;overflow=hidden;fillOpacity=100;strokeOpacity=100;enumerate=0;comic=0;strokeWidth=4;fontSize=18;" parent="nGZjkU_BB-jmXCYSWLeB-113" vertex="1">
          <mxGeometry width="30" height="100" as="geometry">
            <mxRectangle width="30" height="100" as="alternateBounds" />
          </mxGeometry>
        </mxCell>
        <mxCell id="nGZjkU_BB-jmXCYSWLeB-115" value="employee_id, uuid" style="shape=partialRectangle;connectable=0;fillColor=none;top=0;left=0;bottom=0;right=0;align=left;spacingLeft=6;fontStyle=5;overflow=hidden;fillOpacity=100;strokeOpacity=100;enumerate=0;comic=0;strokeWidth=4;fontSize=25;" parent="nGZjkU_BB-jmXCYSWLeB-113" vertex="1">
          <mxGeometry x="30" width="385.25" height="100" as="geometry">
            <mxRectangle width="385.25" height="100" as="alternateBounds" />
          </mxGeometry>
        </mxCell>
        <mxCell id="nGZjkU_BB-jmXCYSWLeB-116" value="" style="shape=tableRow;horizontal=0;startSize=0;swimlaneHead=0;swimlaneBody=0;fillColor=none;collapsible=0;dropTarget=0;points=[[0,0.5],[1,0.5]];portConstraint=eastwest;top=0;left=0;right=0;bottom=1;strokeColor=none;fillOpacity=100;strokeOpacity=100;enumerate=0;comic=0;strokeWidth=4;" parent="nGZjkU_BB-jmXCYSWLeB-112" vertex="1">
          <mxGeometry y="155" width="415.25" height="100" as="geometry" />
        </mxCell>
        <mxCell id="nGZjkU_BB-jmXCYSWLeB-117" value="PK" style="shape=partialRectangle;connectable=0;fillColor=none;top=0;left=0;bottom=0;right=0;fontStyle=1;overflow=hidden;fillOpacity=100;strokeOpacity=100;enumerate=0;comic=0;strokeWidth=4;fontSize=18;" parent="nGZjkU_BB-jmXCYSWLeB-116" vertex="1">
          <mxGeometry width="30" height="100" as="geometry">
            <mxRectangle width="30" height="100" as="alternateBounds" />
          </mxGeometry>
        </mxCell>
        <mxCell id="nGZjkU_BB-jmXCYSWLeB-118" value="ceritificate_id, uuid" style="shape=partialRectangle;connectable=0;fillColor=none;top=0;left=0;bottom=0;right=0;align=left;spacingLeft=6;fontStyle=5;overflow=hidden;fillOpacity=100;strokeOpacity=100;enumerate=0;comic=0;strokeWidth=4;fontSize=25;" parent="nGZjkU_BB-jmXCYSWLeB-116" vertex="1">
          <mxGeometry x="30" width="385.25" height="100" as="geometry">
            <mxRectangle width="385.25" height="100" as="alternateBounds" />
          </mxGeometry>
        </mxCell>
        <mxCell id="nGZjkU_BB-jmXCYSWLeB-119" value="" style="edgeStyle=entityRelationEdgeStyle;fontSize=12;html=1;endArrow=ERoneToMany;rounded=0;exitX=1;exitY=0.5;exitDx=0;exitDy=0;entryX=0;entryY=0.5;entryDx=0;entryDy=0;fillOpacity=100;strokeOpacity=100;enumerate=0;comic=0;strokeWidth=4;" parent="1" source="nGZjkU_BB-jmXCYSWLeB-69" target="nGZjkU_BB-jmXCYSWLeB-113" edge="1">
          <mxGeometry width="100" height="100" relative="1" as="geometry">
            <mxPoint x="793.9497296327163" y="2959.698649999999" as="sourcePoint" />
            <mxPoint x="678.0539974971346" y="2696.3892196999996" as="targetPoint" />
          </mxGeometry>
        </mxCell>
        <mxCell id="nGZjkU_BB-jmXCYSWLeB-120" value="" style="edgeStyle=entityRelationEdgeStyle;fontSize=12;html=1;endArrow=ERoneToMany;rounded=0;exitX=0;exitY=0.5;exitDx=0;exitDy=0;entryX=1;entryY=0.5;entryDx=0;entryDy=0;fillOpacity=100;strokeOpacity=100;enumerate=0;comic=0;strokeWidth=4;" parent="1" source="nGZjkU_BB-jmXCYSWLeB-91" target="nGZjkU_BB-jmXCYSWLeB-116" edge="1">
          <mxGeometry width="100" height="100" relative="1" as="geometry">
            <mxPoint x="2043.1196909256707" y="2959.698649999999" as="sourcePoint" />
            <mxPoint x="1470.4510983488867" y="2987.418349999999" as="targetPoint" />
          </mxGeometry>
        </mxCell>
        <mxCell id="nGZjkU_BB-jmXCYSWLeB-121" value="page_attachment" style="shape=table;startSize=55;container=1;collapsible=1;childLayout=tableLayout;fixedRows=1;rowLines=0;fontStyle=1;align=center;resizeLast=1;fillOpacity=100;strokeOpacity=100;enumerate=0;comic=0;flipH=1;fontSize=26;strokeWidth=4;" parent="1" vertex="1">
          <mxGeometry x="1031.5" y="62.99" width="425.19" height="255.18899999999996" as="geometry" />
        </mxCell>
        <mxCell id="nGZjkU_BB-jmXCYSWLeB-122" value="" style="shape=tableRow;horizontal=0;startSize=0;swimlaneHead=0;swimlaneBody=0;fillColor=none;collapsible=0;dropTarget=0;points=[[0,0.5],[1,0.5]];portConstraint=eastwest;top=0;left=0;right=0;bottom=1;fillOpacity=100;strokeOpacity=100;enumerate=0;comic=0;strokeWidth=4;fontSize=19;" parent="nGZjkU_BB-jmXCYSWLeB-121" vertex="1">
          <mxGeometry y="55" width="425.19" height="100" as="geometry" />
        </mxCell>
        <mxCell id="nGZjkU_BB-jmXCYSWLeB-123" value="PK" style="shape=partialRectangle;connectable=0;fillColor=none;top=0;left=0;bottom=0;right=0;fontStyle=1;overflow=hidden;fillOpacity=100;strokeOpacity=100;enumerate=0;comic=0;strokeWidth=4;fontSize=18;" parent="nGZjkU_BB-jmXCYSWLeB-122" vertex="1">
          <mxGeometry width="30" height="100" as="geometry">
            <mxRectangle width="30" height="100" as="alternateBounds" />
          </mxGeometry>
        </mxCell>
        <mxCell id="nGZjkU_BB-jmXCYSWLeB-124" value="page_id, uuid" style="shape=partialRectangle;connectable=0;fillColor=none;top=0;left=0;bottom=0;right=0;align=left;spacingLeft=6;fontStyle=5;overflow=hidden;fillOpacity=100;strokeOpacity=100;enumerate=0;comic=0;strokeWidth=4;fontSize=25;fontColor=#000000;html=1;whiteSpace=wrap;" parent="nGZjkU_BB-jmXCYSWLeB-122" vertex="1">
          <mxGeometry x="30" width="395.19" height="100" as="geometry">
            <mxRectangle width="395.19" height="100" as="alternateBounds" />
          </mxGeometry>
        </mxCell>
        <mxCell id="nGZjkU_BB-jmXCYSWLeB-125" value="" style="shape=tableRow;horizontal=0;startSize=0;swimlaneHead=0;swimlaneBody=0;fillColor=none;collapsible=0;dropTarget=0;points=[[0,0.5],[1,0.5]];portConstraint=eastwest;top=0;left=0;right=0;bottom=1;strokeColor=none;fillOpacity=100;strokeOpacity=100;enumerate=0;comic=0;strokeWidth=4;" parent="nGZjkU_BB-jmXCYSWLeB-121" vertex="1">
          <mxGeometry y="155" width="425.19" height="100" as="geometry" />
        </mxCell>
        <mxCell id="nGZjkU_BB-jmXCYSWLeB-126" value="PK" style="shape=partialRectangle;connectable=0;fillColor=none;top=0;left=0;bottom=0;right=0;fontStyle=1;overflow=hidden;fillOpacity=100;strokeOpacity=100;enumerate=0;comic=0;strokeWidth=4;fontSize=18;" parent="nGZjkU_BB-jmXCYSWLeB-125" vertex="1">
          <mxGeometry width="30" height="100" as="geometry">
            <mxRectangle width="30" height="100" as="alternateBounds" />
          </mxGeometry>
        </mxCell>
        <mxCell id="nGZjkU_BB-jmXCYSWLeB-127" value="attachment_id. uuid" style="shape=partialRectangle;connectable=0;fillColor=none;top=0;left=0;bottom=0;right=0;align=left;spacingLeft=6;fontStyle=5;overflow=hidden;fillOpacity=100;strokeOpacity=100;enumerate=0;comic=0;strokeWidth=4;fontSize=25;" parent="nGZjkU_BB-jmXCYSWLeB-125" vertex="1">
          <mxGeometry x="30" width="395.19" height="100" as="geometry">
            <mxRectangle width="395.19" height="100" as="alternateBounds" />
          </mxGeometry>
        </mxCell>
        <mxCell id="nGZjkU_BB-jmXCYSWLeB-128" value="" style="edgeStyle=entityRelationEdgeStyle;fontSize=12;html=1;endArrow=ERoneToMany;rounded=0;exitX=1;exitY=0.5;exitDx=0;exitDy=0;entryX=0;entryY=0.5;entryDx=0;entryDy=0;fillOpacity=100;strokeOpacity=100;enumerate=0;comic=0;strokeWidth=4;" parent="1" source="nGZjkU_BB-jmXCYSWLeB-50" target="nGZjkU_BB-jmXCYSWLeB-122" edge="1">
          <mxGeometry width="100" height="100" relative="1" as="geometry">
            <mxPoint x="-337.5804576938748" y="1421.2552999999996" as="sourcePoint" />
            <mxPoint x="-213.00604120991062" y="701.7904864999994" as="targetPoint" />
          </mxGeometry>
        </mxCell>
        <mxCell id="nGZjkU_BB-jmXCYSWLeB-129" value="" style="edgeStyle=orthogonalEdgeStyle;fontSize=12;html=1;endArrow=ERoneToMany;rounded=0;exitX=0;exitY=0.5;exitDx=0;exitDy=0;entryX=1;entryY=0.5;entryDx=0;entryDy=0;fillOpacity=100;strokeOpacity=100;enumerate=0;comic=0;strokeWidth=4;" parent="1" source="nGZjkU_BB-jmXCYSWLeB-156" target="nGZjkU_BB-jmXCYSWLeB-125" edge="1">
          <mxGeometry width="100" height="100" relative="1" as="geometry">
            <mxPoint x="90.88731568764861" y="639.55976" as="sourcePoint" />
            <mxPoint x="141.7344400158529" y="894.5809999999999" as="targetPoint" />
            <Array as="points">
              <mxPoint x="1362" y="794" />
              <mxPoint x="1362" y="531" />
              <mxPoint x="1520" y="531" />
              <mxPoint x="1520" y="268" />
            </Array>
          </mxGeometry>
        </mxCell>
        <mxCell id="nGZjkU_BB-jmXCYSWLeB-130" value="" style="edgeStyle=entityRelationEdgeStyle;fontSize=12;html=1;endArrow=ERoneToMany;rounded=0;entryX=1;entryY=0.5;entryDx=0;entryDy=0;exitX=0;exitY=0.5;exitDx=0;exitDy=0;fillOpacity=100;strokeOpacity=100;enumerate=0;comic=0;strokeWidth=4;" parent="1" source="nGZjkU_BB-jmXCYSWLeB-43" target="nGZjkU_BB-jmXCYSWLeB-159" edge="1">
          <mxGeometry width="100" height="100" relative="1" as="geometry">
            <mxPoint x="515.3805719718267" y="700.5430999999999" as="sourcePoint" />
            <mxPoint x="713.6822806115515" y="778.1582599999999" as="targetPoint" />
          </mxGeometry>
        </mxCell>
        <mxCell id="nGZjkU_BB-jmXCYSWLeB-131" value="employee_position" style="shape=table;startSize=55;container=1;collapsible=1;childLayout=tableLayout;fixedRows=1;rowLines=0;fontStyle=1;align=center;resizeLast=1;fillOpacity=100;strokeOpacity=100;enumerate=0;comic=0;flipH=1;fontSize=26;strokeWidth=4;" parent="1" vertex="1">
          <mxGeometry x="1625.98" y="2641.73" width="373.72" height="255" as="geometry" />
        </mxCell>
        <mxCell id="nGZjkU_BB-jmXCYSWLeB-132" value="" style="shape=tableRow;horizontal=0;startSize=0;swimlaneHead=0;swimlaneBody=0;fillColor=none;collapsible=0;dropTarget=0;points=[[0,0.5],[1,0.5]];portConstraint=eastwest;top=0;left=0;right=0;bottom=1;fillOpacity=100;strokeOpacity=100;enumerate=0;comic=0;strokeWidth=4;" parent="nGZjkU_BB-jmXCYSWLeB-131" vertex="1">
          <mxGeometry y="55" width="373.72" height="100" as="geometry" />
        </mxCell>
        <mxCell id="nGZjkU_BB-jmXCYSWLeB-133" value="PK" style="shape=partialRectangle;connectable=0;fillColor=none;top=0;left=0;bottom=0;right=0;fontStyle=1;overflow=hidden;fillOpacity=100;strokeOpacity=100;enumerate=0;comic=0;strokeWidth=4;fontSize=18;" parent="nGZjkU_BB-jmXCYSWLeB-132" vertex="1">
          <mxGeometry width="30" height="100" as="geometry">
            <mxRectangle width="30" height="100" as="alternateBounds" />
          </mxGeometry>
        </mxCell>
        <mxCell id="nGZjkU_BB-jmXCYSWLeB-134" value="id. uuid" style="shape=partialRectangle;connectable=0;fillColor=none;top=0;left=0;bottom=0;right=0;align=left;spacingLeft=6;fontStyle=5;overflow=hidden;fillOpacity=100;strokeOpacity=100;enumerate=0;comic=0;strokeWidth=4;fontSize=25;" parent="nGZjkU_BB-jmXCYSWLeB-132" vertex="1">
          <mxGeometry x="30" width="343.72" height="100" as="geometry">
            <mxRectangle width="343.72" height="100" as="alternateBounds" />
          </mxGeometry>
        </mxCell>
        <mxCell id="nGZjkU_BB-jmXCYSWLeB-135" value="" style="shape=tableRow;horizontal=0;startSize=0;swimlaneHead=0;swimlaneBody=0;fillColor=none;collapsible=0;dropTarget=0;points=[[0,0.5],[1,0.5]];portConstraint=eastwest;top=0;left=0;right=0;bottom=0;fillOpacity=100;strokeOpacity=100;enumerate=0;comic=0;strokeWidth=4;" parent="nGZjkU_BB-jmXCYSWLeB-131" vertex="1">
          <mxGeometry y="155" width="373.72" height="100" as="geometry" />
        </mxCell>
        <mxCell id="nGZjkU_BB-jmXCYSWLeB-136" value="" style="shape=partialRectangle;connectable=0;fillColor=none;top=0;left=0;bottom=0;right=0;editable=1;overflow=hidden;fillOpacity=100;strokeOpacity=100;enumerate=0;comic=0;strokeWidth=4;" parent="nGZjkU_BB-jmXCYSWLeB-135" vertex="1">
          <mxGeometry width="30" height="100" as="geometry">
            <mxRectangle width="30" height="100" as="alternateBounds" />
          </mxGeometry>
        </mxCell>
        <mxCell id="nGZjkU_BB-jmXCYSWLeB-137" value="position, text, not null" style="shape=partialRectangle;connectable=0;fillColor=none;top=0;left=0;bottom=0;right=0;align=left;spacingLeft=6;overflow=hidden;fillOpacity=100;strokeOpacity=100;enumerate=0;comic=0;strokeWidth=4;fontSize=25;" parent="nGZjkU_BB-jmXCYSWLeB-135" vertex="1">
          <mxGeometry x="30" width="343.72" height="100" as="geometry">
            <mxRectangle width="343.72" height="100" as="alternateBounds" />
          </mxGeometry>
        </mxCell>
        <mxCell id="nGZjkU_BB-jmXCYSWLeB-138" value="employee_employee_position" style="shape=table;startSize=55;container=1;collapsible=1;childLayout=tableLayout;fixedRows=1;rowLines=0;fontStyle=1;align=center;resizeLast=1;fillOpacity=100;strokeOpacity=100;enumerate=0;comic=0;flipH=1;fontSize=26;strokeWidth=4;" parent="1" vertex="1">
          <mxGeometry x="910.72" y="2557.76" width="496.6" height="255" as="geometry" />
        </mxCell>
        <mxCell id="nGZjkU_BB-jmXCYSWLeB-139" value="" style="shape=tableRow;horizontal=0;startSize=0;swimlaneHead=0;swimlaneBody=0;fillColor=none;collapsible=0;dropTarget=0;points=[[0,0.5],[1,0.5]];portConstraint=eastwest;top=0;left=0;right=0;bottom=1;fillOpacity=100;strokeOpacity=100;enumerate=0;comic=0;strokeWidth=4;" parent="nGZjkU_BB-jmXCYSWLeB-138" vertex="1">
          <mxGeometry y="55" width="496.6" height="100" as="geometry" />
        </mxCell>
        <mxCell id="nGZjkU_BB-jmXCYSWLeB-140" value="PK" style="shape=partialRectangle;connectable=0;fillColor=none;top=0;left=0;bottom=0;right=0;fontStyle=1;overflow=hidden;fillOpacity=100;strokeOpacity=100;enumerate=0;comic=0;strokeWidth=4;fontSize=18;" parent="nGZjkU_BB-jmXCYSWLeB-139" vertex="1">
          <mxGeometry width="30" height="100" as="geometry">
            <mxRectangle width="30" height="100" as="alternateBounds" />
          </mxGeometry>
        </mxCell>
        <mxCell id="nGZjkU_BB-jmXCYSWLeB-141" value="employee_id, uuid" style="shape=partialRectangle;connectable=0;fillColor=none;top=0;left=0;bottom=0;right=0;align=left;spacingLeft=6;fontStyle=5;overflow=hidden;fillOpacity=100;strokeOpacity=100;enumerate=0;comic=0;strokeWidth=4;fontSize=25;" parent="nGZjkU_BB-jmXCYSWLeB-139" vertex="1">
          <mxGeometry x="30" width="466.6" height="100" as="geometry">
            <mxRectangle width="466.6" height="100" as="alternateBounds" />
          </mxGeometry>
        </mxCell>
        <mxCell id="nGZjkU_BB-jmXCYSWLeB-142" value="" style="shape=tableRow;horizontal=0;startSize=0;swimlaneHead=0;swimlaneBody=0;fillColor=none;collapsible=0;dropTarget=0;points=[[0,0.5],[1,0.5]];portConstraint=eastwest;top=0;left=0;right=0;bottom=1;strokeColor=none;fillOpacity=100;strokeOpacity=100;enumerate=0;comic=0;strokeWidth=4;" parent="nGZjkU_BB-jmXCYSWLeB-138" vertex="1">
          <mxGeometry y="155" width="496.6" height="100" as="geometry" />
        </mxCell>
        <mxCell id="nGZjkU_BB-jmXCYSWLeB-143" value="PK" style="shape=partialRectangle;connectable=0;fillColor=none;top=0;left=0;bottom=0;right=0;fontStyle=1;overflow=hidden;fillOpacity=100;strokeOpacity=100;enumerate=0;comic=0;strokeWidth=4;fontSize=18;" parent="nGZjkU_BB-jmXCYSWLeB-142" vertex="1">
          <mxGeometry width="30" height="100" as="geometry">
            <mxRectangle width="30" height="100" as="alternateBounds" />
          </mxGeometry>
        </mxCell>
        <mxCell id="nGZjkU_BB-jmXCYSWLeB-144" value="employee_position_id, uuid" style="shape=partialRectangle;connectable=0;fillColor=none;top=0;left=0;bottom=0;right=0;align=left;spacingLeft=6;fontStyle=5;overflow=hidden;fillOpacity=100;strokeOpacity=100;enumerate=0;comic=0;strokeWidth=4;fontSize=25;" parent="nGZjkU_BB-jmXCYSWLeB-142" vertex="1">
          <mxGeometry x="30" width="466.6" height="100" as="geometry">
            <mxRectangle width="466.6" height="100" as="alternateBounds" />
          </mxGeometry>
        </mxCell>
        <mxCell id="nGZjkU_BB-jmXCYSWLeB-145" value="" style="edgeStyle=entityRelationEdgeStyle;fontSize=12;html=1;endArrow=ERoneToMany;rounded=0;entryX=0;entryY=0.5;entryDx=0;entryDy=0;exitX=1;exitY=0.5;exitDx=0;exitDy=0;fillOpacity=100;strokeOpacity=100;enumerate=0;comic=0;strokeWidth=4;" parent="1" source="nGZjkU_BB-jmXCYSWLeB-69" target="nGZjkU_BB-jmXCYSWLeB-139" edge="1">
          <mxGeometry width="100" height="100" relative="1" as="geometry">
            <mxPoint x="1239.4901301876157" y="3957.6078499999994" as="sourcePoint" />
            <mxPoint x="697.9651417318237" y="3236.8956500000018" as="targetPoint" />
          </mxGeometry>
        </mxCell>
        <mxCell id="nGZjkU_BB-jmXCYSWLeB-146" value="" style="edgeStyle=entityRelationEdgeStyle;fontSize=12;html=1;endArrow=ERoneToMany;rounded=0;exitX=0;exitY=0.5;exitDx=0;exitDy=0;entryX=1;entryY=0.5;entryDx=0;entryDy=0;fillOpacity=100;strokeOpacity=100;enumerate=0;comic=0;strokeWidth=4;" parent="1" source="nGZjkU_BB-jmXCYSWLeB-132" target="nGZjkU_BB-jmXCYSWLeB-142" edge="1">
          <mxGeometry width="100" height="100" relative="1" as="geometry">
            <mxPoint x="1905.6102975301196" y="3929.8881499999984" as="sourcePoint" />
            <mxPoint x="1448.8374370889176" y="3624.971449999999" as="targetPoint" />
          </mxGeometry>
        </mxCell>
        <mxCell id="nGZjkU_BB-jmXCYSWLeB-147" value="university" style="shape=table;startSize=55;container=1;collapsible=1;childLayout=tableLayout;fixedRows=1;rowLines=0;fontStyle=1;align=center;resizeLast=1;fillOpacity=100;strokeOpacity=100;enumerate=0;comic=0;flipH=1;fontSize=26;strokeWidth=4;" parent="1" vertex="1">
          <mxGeometry x="139.95" y="1393.54" width="456.77" height="256.07" as="geometry" />
        </mxCell>
        <mxCell id="nGZjkU_BB-jmXCYSWLeB-148" value="" style="shape=tableRow;horizontal=0;startSize=0;swimlaneHead=0;swimlaneBody=0;fillColor=none;collapsible=0;dropTarget=0;points=[[0,0.5],[1,0.5]];portConstraint=eastwest;top=0;left=0;right=0;bottom=1;fillOpacity=100;strokeOpacity=100;enumerate=0;comic=0;strokeWidth=4;" parent="nGZjkU_BB-jmXCYSWLeB-147" vertex="1">
          <mxGeometry y="55" width="456.77" height="100" as="geometry" />
        </mxCell>
        <mxCell id="nGZjkU_BB-jmXCYSWLeB-149" value="PK" style="shape=partialRectangle;connectable=0;fillColor=none;top=0;left=0;bottom=0;right=0;fontStyle=1;overflow=hidden;fillOpacity=100;strokeOpacity=100;enumerate=0;comic=0;strokeWidth=4;fontSize=18;" parent="nGZjkU_BB-jmXCYSWLeB-148" vertex="1">
          <mxGeometry width="30" height="100" as="geometry">
            <mxRectangle width="30" height="100" as="alternateBounds" />
          </mxGeometry>
        </mxCell>
        <mxCell id="nGZjkU_BB-jmXCYSWLeB-150" value="id, uuid" style="shape=partialRectangle;connectable=0;fillColor=none;top=0;left=0;bottom=0;right=0;align=left;spacingLeft=6;fontStyle=5;overflow=hidden;fillOpacity=100;strokeOpacity=100;enumerate=0;comic=0;strokeWidth=4;fontSize=25;" parent="nGZjkU_BB-jmXCYSWLeB-148" vertex="1">
          <mxGeometry x="30" width="426.77" height="100" as="geometry">
            <mxRectangle width="426.77" height="100" as="alternateBounds" />
          </mxGeometry>
        </mxCell>
        <mxCell id="nGZjkU_BB-jmXCYSWLeB-151" value="" style="shape=tableRow;horizontal=0;startSize=0;swimlaneHead=0;swimlaneBody=0;fillColor=none;collapsible=0;dropTarget=0;points=[[0,0.5],[1,0.5]];portConstraint=eastwest;top=0;left=0;right=0;bottom=0;fillOpacity=100;strokeOpacity=100;enumerate=0;comic=0;strokeWidth=4;" parent="nGZjkU_BB-jmXCYSWLeB-147" vertex="1">
          <mxGeometry y="155" width="456.77" height="100" as="geometry" />
        </mxCell>
        <mxCell id="nGZjkU_BB-jmXCYSWLeB-152" value="" style="shape=partialRectangle;connectable=0;fillColor=none;top=0;left=0;bottom=0;right=0;editable=1;overflow=hidden;fillOpacity=100;strokeOpacity=100;enumerate=0;comic=0;strokeWidth=4;" parent="nGZjkU_BB-jmXCYSWLeB-151" vertex="1">
          <mxGeometry width="30" height="100" as="geometry">
            <mxRectangle width="30" height="100" as="alternateBounds" />
          </mxGeometry>
        </mxCell>
        <mxCell id="nGZjkU_BB-jmXCYSWLeB-153" value="university_name, text, not null" style="shape=partialRectangle;connectable=0;fillColor=none;top=0;left=0;bottom=0;right=0;align=left;spacingLeft=6;overflow=hidden;fillOpacity=100;strokeOpacity=100;enumerate=0;comic=0;strokeWidth=4;fontSize=25;" parent="nGZjkU_BB-jmXCYSWLeB-151" vertex="1">
          <mxGeometry x="30" width="426.77" height="100" as="geometry">
            <mxRectangle width="426.77" height="100" as="alternateBounds" />
          </mxGeometry>
        </mxCell>
        <mxCell id="nGZjkU_BB-jmXCYSWLeB-154" value="" style="edgeStyle=entityRelationEdgeStyle;fontSize=12;html=1;endArrow=ERoneToMany;rounded=0;entryX=0;entryY=0.5;entryDx=0;entryDy=0;exitX=1;exitY=0.5;exitDx=0;exitDy=0;fillOpacity=100;strokeOpacity=100;enumerate=0;comic=0;strokeWidth=4;" parent="1" source="nGZjkU_BB-jmXCYSWLeB-148" target="nGZjkU_BB-jmXCYSWLeB-21" edge="1">
          <mxGeometry width="100" height="100" relative="1" as="geometry">
            <mxPoint x="-189.12927805048412" y="2169.6871999999994" as="sourcePoint" />
            <mxPoint x="-396.75330552375783" y="1892.4901999999995" as="targetPoint" />
          </mxGeometry>
        </mxCell>
        <mxCell id="nGZjkU_BB-jmXCYSWLeB-155" value="attachment" style="shape=table;startSize=55;container=1;collapsible=1;childLayout=tableLayout;fixedRows=1;rowLines=0;fontStyle=1;align=center;resizeLast=1;fillOpacity=100;strokeOpacity=100;enumerate=0;comic=0;flipH=1;fontSize=26;strokeWidth=4;" parent="1" vertex="1">
          <mxGeometry x="1407.32" y="688.98" width="529.68" height="555" as="geometry" />
        </mxCell>
        <mxCell id="nGZjkU_BB-jmXCYSWLeB-156" value="" style="shape=tableRow;horizontal=0;startSize=0;swimlaneHead=0;swimlaneBody=0;fillColor=none;collapsible=0;dropTarget=0;points=[[0,0.5],[1,0.5]];portConstraint=eastwest;top=0;left=0;right=0;bottom=1;fillOpacity=100;strokeOpacity=100;enumerate=0;comic=0;strokeWidth=4;" parent="nGZjkU_BB-jmXCYSWLeB-155" vertex="1">
          <mxGeometry y="55" width="529.68" height="100" as="geometry" />
        </mxCell>
        <mxCell id="nGZjkU_BB-jmXCYSWLeB-157" value="PK" style="shape=partialRectangle;connectable=0;fillColor=none;top=0;left=0;bottom=0;right=0;fontStyle=1;overflow=hidden;fillOpacity=100;strokeOpacity=100;enumerate=0;comic=0;strokeWidth=4;fontSize=18;" parent="nGZjkU_BB-jmXCYSWLeB-156" vertex="1">
          <mxGeometry width="30" height="100" as="geometry">
            <mxRectangle width="30" height="100" as="alternateBounds" />
          </mxGeometry>
        </mxCell>
        <mxCell id="nGZjkU_BB-jmXCYSWLeB-158" value="id. uuid" style="shape=partialRectangle;connectable=0;fillColor=none;top=0;left=0;bottom=0;right=0;align=left;spacingLeft=6;fontStyle=5;overflow=hidden;fillOpacity=100;strokeOpacity=100;enumerate=0;comic=0;strokeWidth=4;fontSize=25;" parent="nGZjkU_BB-jmXCYSWLeB-156" vertex="1">
          <mxGeometry x="30" width="499.67999999999995" height="100" as="geometry">
            <mxRectangle width="499.67999999999995" height="100" as="alternateBounds" />
          </mxGeometry>
        </mxCell>
        <mxCell id="nGZjkU_BB-jmXCYSWLeB-159" value="" style="shape=tableRow;horizontal=0;startSize=0;swimlaneHead=0;swimlaneBody=0;fillColor=none;collapsible=0;dropTarget=0;points=[[0,0.5],[1,0.5]];portConstraint=eastwest;top=0;left=0;right=0;bottom=0;fillOpacity=100;strokeOpacity=100;enumerate=0;comic=0;strokeWidth=4;" parent="nGZjkU_BB-jmXCYSWLeB-155" vertex="1">
          <mxGeometry y="155" width="529.68" height="100" as="geometry" />
        </mxCell>
        <mxCell id="nGZjkU_BB-jmXCYSWLeB-160" value="FK" style="shape=partialRectangle;connectable=0;fillColor=none;top=0;left=0;bottom=0;right=0;editable=1;overflow=hidden;fillOpacity=100;strokeOpacity=100;enumerate=0;comic=0;strokeWidth=4;fontSize=18;" parent="nGZjkU_BB-jmXCYSWLeB-159" vertex="1">
          <mxGeometry width="30" height="100" as="geometry">
            <mxRectangle width="30" height="100" as="alternateBounds" />
          </mxGeometry>
        </mxCell>
        <mxCell id="nGZjkU_BB-jmXCYSWLeB-161" value="type_id, uuid, not null" style="shape=partialRectangle;connectable=0;fillColor=none;top=0;left=0;bottom=0;right=0;align=left;spacingLeft=6;overflow=hidden;fillOpacity=100;strokeOpacity=100;enumerate=0;comic=0;strokeWidth=4;fontSize=25;" parent="nGZjkU_BB-jmXCYSWLeB-159" vertex="1">
          <mxGeometry x="30" width="499.67999999999995" height="100" as="geometry">
            <mxRectangle width="499.67999999999995" height="100" as="alternateBounds" />
          </mxGeometry>
        </mxCell>
        <mxCell id="nGZjkU_BB-jmXCYSWLeB-162" value="" style="shape=tableRow;horizontal=0;startSize=0;swimlaneHead=0;swimlaneBody=0;fillColor=none;collapsible=0;dropTarget=0;points=[[0,0.5],[1,0.5]];portConstraint=eastwest;top=0;left=0;right=0;bottom=0;fillOpacity=100;strokeOpacity=100;enumerate=0;comic=0;strokeWidth=4;" parent="nGZjkU_BB-jmXCYSWLeB-155" vertex="1">
          <mxGeometry y="255" width="529.68" height="100" as="geometry" />
        </mxCell>
        <mxCell id="nGZjkU_BB-jmXCYSWLeB-163" value="" style="shape=partialRectangle;connectable=0;fillColor=none;top=0;left=0;bottom=0;right=0;editable=1;overflow=hidden;fillOpacity=100;strokeOpacity=100;enumerate=0;comic=0;strokeWidth=4;" parent="nGZjkU_BB-jmXCYSWLeB-162" vertex="1">
          <mxGeometry width="30" height="100" as="geometry">
            <mxRectangle width="30" height="100" as="alternateBounds" />
          </mxGeometry>
        </mxCell>
        <mxCell id="nGZjkU_BB-jmXCYSWLeB-164" value="link, text, not null" style="shape=partialRectangle;connectable=0;fillColor=none;top=0;left=0;bottom=0;right=0;align=left;spacingLeft=6;overflow=hidden;fillOpacity=100;strokeOpacity=100;enumerate=0;comic=0;strokeWidth=4;fontSize=25;" parent="nGZjkU_BB-jmXCYSWLeB-162" vertex="1">
          <mxGeometry x="30" width="499.67999999999995" height="100" as="geometry">
            <mxRectangle width="499.67999999999995" height="100" as="alternateBounds" />
          </mxGeometry>
        </mxCell>
        <mxCell id="nGZjkU_BB-jmXCYSWLeB-165" value="" style="shape=tableRow;horizontal=0;startSize=0;swimlaneHead=0;swimlaneBody=0;fillColor=none;collapsible=0;dropTarget=0;points=[[0,0.5],[1,0.5]];portConstraint=eastwest;top=0;left=0;right=0;bottom=0;fillOpacity=100;strokeOpacity=100;enumerate=0;comic=0;strokeWidth=4;" parent="nGZjkU_BB-jmXCYSWLeB-155" vertex="1">
          <mxGeometry y="355" width="529.68" height="100" as="geometry" />
        </mxCell>
        <mxCell id="nGZjkU_BB-jmXCYSWLeB-166" value="" style="shape=partialRectangle;connectable=0;fillColor=none;top=0;left=0;bottom=0;right=0;editable=1;overflow=hidden;fillOpacity=100;strokeOpacity=100;enumerate=0;comic=0;strokeWidth=4;" parent="nGZjkU_BB-jmXCYSWLeB-165" vertex="1">
          <mxGeometry width="30" height="100" as="geometry">
            <mxRectangle width="30" height="100" as="alternateBounds" />
          </mxGeometry>
        </mxCell>
        <mxCell id="nGZjkU_BB-jmXCYSWLeB-167" value="author, text, null" style="shape=partialRectangle;connectable=0;fillColor=none;top=0;left=0;bottom=0;right=0;align=left;spacingLeft=6;overflow=hidden;fillOpacity=100;strokeOpacity=100;enumerate=0;comic=0;strokeWidth=4;fontSize=25;" parent="nGZjkU_BB-jmXCYSWLeB-165" vertex="1">
          <mxGeometry x="30" width="499.67999999999995" height="100" as="geometry">
            <mxRectangle width="499.67999999999995" height="100" as="alternateBounds" />
          </mxGeometry>
        </mxCell>
        <mxCell id="nGZjkU_BB-jmXCYSWLeB-168" value="" style="shape=tableRow;horizontal=0;startSize=0;swimlaneHead=0;swimlaneBody=0;fillColor=none;collapsible=0;dropTarget=0;points=[[0,0.5],[1,0.5]];portConstraint=eastwest;top=0;left=0;right=0;bottom=0;fillOpacity=100;strokeOpacity=100;enumerate=0;comic=0;strokeWidth=4;" parent="nGZjkU_BB-jmXCYSWLeB-155" vertex="1">
          <mxGeometry y="455" width="529.68" height="100" as="geometry" />
        </mxCell>
        <mxCell id="nGZjkU_BB-jmXCYSWLeB-169" value="" style="shape=partialRectangle;connectable=0;fillColor=none;top=0;left=0;bottom=0;right=0;editable=1;overflow=hidden;fillOpacity=100;strokeOpacity=100;enumerate=0;comic=0;strokeWidth=4;" parent="nGZjkU_BB-jmXCYSWLeB-168" vertex="1">
          <mxGeometry width="30" height="100" as="geometry">
            <mxRectangle width="30" height="100" as="alternateBounds" />
          </mxGeometry>
        </mxCell>
        <mxCell id="nGZjkU_BB-jmXCYSWLeB-170" value="checksum, text, not null" style="shape=partialRectangle;connectable=0;fillColor=none;top=0;left=0;bottom=0;right=0;align=left;spacingLeft=6;overflow=hidden;fillOpacity=100;strokeOpacity=100;enumerate=0;comic=0;strokeWidth=4;fontSize=25;" parent="nGZjkU_BB-jmXCYSWLeB-168" vertex="1">
          <mxGeometry x="30" width="499.67999999999995" height="100" as="geometry">
            <mxRectangle width="499.67999999999995" height="100" as="alternateBounds" />
          </mxGeometry>
        </mxCell>
      </root>
    </mxGraphModel>
  </diagram>
</mxfile>
